{
.appVersion = "1341";
DisplayStrings = (
"/space harvestfungoid",

glyphs = (
{
glyphname = A;
lastChange = "2020-07-01 15:34:05 +0000";
layers = (
{
background = {
paths = (
{
closed = 0;
nodes = (
"145 572 LINE",
"149 393 OFFCURVE",
"110 210 OFFCURVE",
"118 34 CURVE",
"159 353 OFFCURVE",
"258 658 OFFCURVE",
"398 658 CURVE SMOOTH",
"564 658 OFFCURVE",
"467 251 OFFCURVE",
"615 1 CURVE SMOOTH"
);
},
{
closed = 0;
nodes = (
"75 266 LINE",
"256 336 OFFCURVE",
"421 367 OFFCURVE",
"687 372 CURVE SMOOTH"
);
}
);
};
backgroundImage = {
crop = "{{0, 0}, {2004, 204}}";
imagePath = "Images/H_.glif-Regular.tif";
locked = "1";
transform = "{5.497, 0, 0, 5.497, -904, -206}";
};
layerId = "DC44E50C-9AA1-421C-802C-D4D023281425";
paths = (
{
closed = 1;
nodes = (
"661 -42 OFFCURVE",
"676 -28 OFFCURVE",
"676 -4 CURVE SMOOTH",
"676 12 OFFCURVE",
"672 23 OFFCURVE",
"666 32 CURVE SMOOTH",
"605 136 OFFCURVE",
"590 271 OFFCURVE",
"576 397 CURVE SMOOTH",
"553 611 OFFCURVE",
"522 718 OFFCURVE",
"398 718 CURVE SMOOTH",
"316 718 OFFCURVE",
"244 653 OFFCURVE",
"186 536 CURVE",
"234 564 LINE",
"209 583 OFFCURVE",
"183 595 OFFCURVE",
"154 595 CURVE SMOOTH",
"129 595 OFFCURVE",
"117 580 OFFCURVE",
"117 557 CURVE SMOOTH",
"117 408 OFFCURVE",
"52 304 OFFCURVE",
"52 112 CURVE SMOOTH",
"52 33 OFFCURVE",
"95 -8 OFFCURVE",
"137 -8 CURVE SMOOTH",
"165 -9 OFFCURVE",
"180 16 OFFCURVE",
"182 33 CURVE SMOOTH",
"233 361 OFFCURVE",
"335 575 OFFCURVE",
"406 575 CURVE SMOOTH",
"427 575 OFFCURVE",
"440 540 OFFCURVE",
"457 384 CURVE SMOOTH",
"470 263 OFFCURVE",
"488 111 OFFCURVE",
"537 29 CURVE SMOOTH",
"573 -33 OFFCURVE",
"602 -42 OFFCURVE",
"639 -42 CURVE SMOOTH"
);
},
{
closed = 1;
nodes = (
"202 206 OFFCURVE",
"329 319 OFFCURVE",
"615 319 CURVE SMOOTH",
"665 319 OFFCURVE",
"707 351 OFFCURVE",
"707 393 CURVE SMOOTH",
"707 423 OFFCURVE",
"696 431 OFFCURVE",
"601 431 CURVE SMOOTH",
"356 431 OFFCURVE",
"190 394 OFFCURVE",
"47 339 CURVE SMOOTH",
"24 330 OFFCURVE",
"15 319 OFFCURVE",
"15 301 CURVE SMOOTH",
"15 248 OFFCURVE",
"59 206 OFFCURVE",
"100 206 CURVE SMOOTH"
);
}
);
width = 722;
}
);
unicode = 0041;
},
{
color = 3;
glyphname = B;
lastChange = "2020-07-03 03:34:03 +0000";
layers = (
{
layerId = "DC44E50C-9AA1-421C-802C-D4D023281425";
paths = (
{
closed = 1;
nodes = (
"206 421 OFFCURVE",
"209 459 OFFCURVE",
"225 566 CURVE SMOOTH",
"231 602 OFFCURVE",
"202 635 OFFCURVE",
"165 635 CURVE SMOOTH",
"135 635 OFFCURVE",
"110 613 OFFCURVE",
"106 583 CURVE SMOOTH",
"89 465 OFFCURVE",
"86 425 OFFCURVE",
"86 331 CURVE SMOOTH",
"86 154 OFFCURVE",
"154 -5 OFFCURVE",
"268 -5 CURVE SMOOTH",
"370 -5 OFFCURVE",
"499 110 OFFCURVE",
"499 206 CURVE SMOOTH",
"499 266 OFFCURVE",
"467 313 OFFCURVE",
"401 336 CURVE",
"494 394 OFFCURVE",
"557 461 OFFCURVE",
"557 521 CURVE SMOOTH",
"557 646 OFFCURVE",
"392 734 OFFCURVE",
"214 734 CURVE SMOOTH",
"180 734 OFFCURVE",
"147 731 OFFCURVE",
"111 723 CURVE SMOOTH",
"84 718 OFFCURVE",
"64 694 OFFCURVE",
"64 665 CURVE SMOOTH",
"64 632 OFFCURVE",
"91 605 OFFCURVE",
"124 605 CURVE SMOOTH",
"140 605 OFFCURVE",
"178 614 OFFCURVE",
"214 614 CURVE SMOOTH",
"326 614 OFFCURVE",
"437 562 OFFCURVE",
"437 521 CURVE SMOOTH",
"437 477 OFFCURVE",
"272 392 OFFCURVE",
"194 395 CURVE SMOOTH",
"151 395 OFFCURVE",
"131 368 OFFCURVE",
"131 336 CURVE SMOOTH",
"131 296 OFFCURVE",
"157 275 OFFCURVE",
"194 276 CURVE SMOOTH",
"302 278 OFFCURVE",
"379 243 OFFCURVE",
"379 206 CURVE SMOOTH",
"379 179 OFFCURVE",
"304 115 OFFCURVE",
"268 115 CURVE SMOOTH",
"246 115 OFFCURVE",
"202 236 OFFCURVE",
"206 332 CURVE SMOOTH"
);
}
);
width = 600;
}
);
unicode = 0042;
},
{
color = 3;
glyphname = C;
lastChange = "2020-07-03 03:35:46 +0000";
layers = (
{
layerId = "DC44E50C-9AA1-421C-802C-D4D023281425";
paths = (
{
closed = 1;
nodes = (
"380 112 OFFCURVE",
"440 132 OFFCURVE",
"488 179 CURVE SMOOTH",
"499 190 OFFCURVE",
"506 205 OFFCURVE",
"506 222 CURVE SMOOTH",
"506 255 OFFCURVE",
"479 282 OFFCURVE",
"446 282 CURVE SMOOTH",
"430 282 OFFCURVE",
"415 275 OFFCURVE",
"404 265 CURVE SMOOTH",
"380 241 OFFCURVE",
"351 232 OFFCURVE",
"293 232 CURVE SMOOTH",
"240 232 OFFCURVE",
"206 271 OFFCURVE",
"206 337 CURVE SMOOTH",
"206 405 OFFCURVE",
"246 488 OFFCURVE",
"277 506 CURVE",
"286 483 OFFCURVE",
"307 467 OFFCURVE",
"333 467 CURVE SMOOTH",
"366 467 OFFCURVE",
"393 494 OFFCURVE",
"393 527 CURVE SMOOTH",
"393 530 OFFCURVE",
"393 533 OFFCURVE",
"392 535 CURVE SMOOTH",
"385 590 OFFCURVE",
"343 629 OFFCURVE",
"288 629 CURVE SMOOTH",
"177 629 OFFCURVE",
"86 481 OFFCURVE",
"86 337 CURVE SMOOTH",
"86 206 OFFCURVE",
"172 112 OFFCURVE",
"293 112 CURVE SMOOTH"
);
}
);
width = 600;
}
);
unicode = 0043;
},
{
glyphname = D;
lastChange = "2020-07-01 15:35:00 +0000";
layers = (
{
background = {
paths = (
{
closed = 0;
nodes = (
"91 551 LINE",
"183 617 OFFCURVE",
"292 634 OFFCURVE",
"358 634 CURVE SMOOTH",
"480 634 OFFCURVE",
"557 594 OFFCURVE",
"557 509 CURVE SMOOTH",
"557 239 OFFCURVE",
"321 49 OFFCURVE",
"245 49 CURVE SMOOTH",
"198 49 OFFCURVE",
"186 92 OFFCURVE",
"186 138 CURVE SMOOTH",
"186 248 OFFCURVE",
"192 372 OFFCURVE",
"209 559 CURVE SMOOTH"
);
}
);
};
backgroundImage = {
crop = "{{0, 0}, {2004, 204}}";
imagePath = "Images/H_.glif-Regular.tif";
locked = "1";
transform = "{5.497, 0, 0, 5.497, -10289, -208}";
};
layerId = "DC44E50C-9AA1-421C-802C-D4D023281425";
paths = (
{
closed = 1;
nodes = (
"414 -18 OFFCURVE",
"623 260 OFFCURVE",
"623 480 CURVE SMOOTH",
"623 581 OFFCURVE",
"548 709 OFFCURVE",
"363 709 CURVE SMOOTH",
"248 709 OFFCURVE",
"121 690 OFFCURVE",
"41 632 CURVE SMOOTH",
"26 621 OFFCURVE",
"16 603 OFFCURVE",
"16 583 CURVE SMOOTH",
"16 529 OFFCURVE",
"59 485 OFFCURVE",
"112 485 CURVE SMOOTH",
"179 485 OFFCURVE",
"239 561 OFFCURVE",
"385 561 CURVE SMOOTH",
"480 561 OFFCURVE",
"509 551 OFFCURVE",
"509 520 CURVE SMOOTH",
"509 277 OFFCURVE",
"266 122 OFFCURVE",
"194 120 CURVE",
"255 82 LINE",
"239 279 OFFCURVE",
"266 336 OFFCURVE",
"266 551 CURVE SMOOTH",
"266 584 OFFCURVE",
"239 611 OFFCURVE",
"206 611 CURVE SMOOTH",
"153 611 OFFCURVE",
"148 594 OFFCURVE",
"145 555 CURVE SMOOTH",
"129 369 OFFCURVE",
"124 244 OFFCURVE",
"124 134 CURVE SMOOTH",
"124 59 OFFCURVE",
"175 -18 OFFCURVE",
"245 -18 CURVE SMOOTH"
);
}
);
width = 658;
}
);
unicode = 0044;
},
{
glyphname = E;
lastChange = "2020-07-01 17:22:34 +0000";
layers = (
{
background = {
paths = (
{
closed = 0;
nodes = (
"189 587 LINE",
"154 500 OFFCURVE",
"123 387 OFFCURVE",
"123 291 CURVE SMOOTH",
"123 166 OFFCURVE",
"202 53 OFFCURVE",
"339 53 CURVE SMOOTH",
"462 53 OFFCURVE",
"547 68 OFFCURVE",
"614 84 CURVE SMOOTH"
);
},
{
closed = 0;
nodes = (
"115 587 LINE",
"262 626 OFFCURVE",
"391 651 OFFCURVE",
"571 659 CURVE SMOOTH"
);
},
{
closed = 0;
nodes = (
"149 312 LINE",
"226 332 OFFCURVE",
"365 348 OFFCURVE",
"478 352 CURVE SMOOTH"
);
}
);
};
backgroundImage = {
crop = "{{0, 0}, {2004, 204}}";
imagePath = "Images/H_.glif-Regular.tif";
locked = "1";
transform = "{5.497, 0, 0, 5.497, -3357, -206}";
};
layerId = "DC44E50C-9AA1-421C-802C-D4D023281425";
paths = (
{
closed = 1;
nodes = (
"81 482 OFFCURVE",
"68 401 OFFCURVE",
"68 334 CURVE SMOOTH",
"68 139 OFFCURVE",
"182 -7 OFFCURVE",
"339 -7 CURVE SMOOTH",
"466 -7 OFFCURVE",
"539 4 OFFCURVE",
"608 21 CURVE SMOOTH",
"636 28 OFFCURVE",
"642 42 OFFCURVE",
"642 62 CURVE SMOOTH",
"642 110 OFFCURVE",
"618 153 OFFCURVE",
"575 153 CURVE SMOOTH",
"497 153 OFFCURVE",
"468 135 OFFCURVE",
"339 135 CURVE SMOOTH",
"238 135 OFFCURVE",
"182 194 OFFCURVE",
"183 293 CURVE SMOOTH",
"184 380 OFFCURVE",
"220 479 OFFCURVE",
"259 572 CURVE SMOOTH",
"274 610 OFFCURVE",
"240 626 OFFCURVE",
"208 626 CURVE SMOOTH",
"162 626 OFFCURVE",
"121 592 OFFCURVE",
"105 546 CURVE SMOOTH"
);
},
{
closed = 1;
nodes = (
"245 274 OFFCURVE",
"370 294 OFFCURVE",
"480 304 CURVE SMOOTH",
"512 307 OFFCURVE",
"538 325 OFFCURVE",
"538 366 CURVE SMOOTH",
"538 401 OFFCURVE",
"526 412 OFFCURVE",
"475 412 CURVE SMOOTH",
"374 409 OFFCURVE",
"259 396 OFFCURVE",
"179 381 CURVE SMOOTH",
"139 377 OFFCURVE",
"113 347 OFFCURVE",
"113 317 CURVE SMOOTH",
"113 281 OFFCURVE",
"129 238 OFFCURVE",
"174 247 CURVE"
);
},
{
closed = 1;
nodes = (
"261 527 OFFCURVE",
"417 584 OFFCURVE",
"588 599 CURVE SMOOTH",
"620 602 OFFCURVE",
"631 619 OFFCURVE",
"631 645 CURVE SMOOTH",
"631 686 OFFCURVE",
"593 719 OFFCURVE",
"528 719 CURVE SMOOTH",
"421 719 OFFCURVE",
"237 691 OFFCURVE",
"95 654 CURVE SMOOTH",
"76 649 OFFCURVE",
"61 629 OFFCURVE",
"61 611 CURVE SMOOTH",
"61 564 OFFCURVE",
"94 527 OFFCURVE",
"158 527 CURVE SMOOTH"
);
}
);
width = 710;
}
);
unicode = 0045;
},
{
glyphname = F;
lastChange = "2020-07-01 15:25:55 +0000";
layers = (
{
background = {
paths = (
{
closed = 0;
nodes = (
"158 603 LINE",
"131 259 OFFCURVE",
"134 138 OFFCURVE",
"208 23 CURVE SMOOTH"
);
},
{
closed = 0;
nodes = (
"80 591 LINE",
"175 616 OFFCURVE",
"347 643 OFFCURVE",
"473 640 CURVE SMOOTH"
);
},
{
closed = 0;
nodes = (
"165 256 LINE",
"261 248 OFFCURVE",
"377 255 OFFCURVE",
"495 276 CURVE SMOOTH"
);
}
);
};
backgroundImage = {
crop = "{{0, 0}, {2004, 204}}";
imagePath = "Images/H_.glif-Regular.tif";
locked = "1";
transform = "{5.497, 0, 0, 5.497, -5478, -206}";
};
layerId = "DC44E50C-9AA1-421C-802C-D4D023281425";
paths = (
{
closed = 1;
nodes = (
"201 340 OFFCURVE",
"216 426 OFFCURVE",
"216 500 CURVE SMOOTH",
"216 576 OFFCURVE",
"203 603 OFFCURVE",
"158 603 CURVE SMOOTH",
"95 603 OFFCURVE",
"70 495 OFFCURVE",
"70 324 CURVE SMOOTH",
"70 177 OFFCURVE",
"106 91 OFFCURVE",
"145 30 CURVE SMOOTH",
"173 -15 OFFCURVE",
"203 -29 OFFCURVE",
"230 -29 CURVE SMOOTH",
"260 -29 OFFCURVE",
"271 -15 OFFCURVE",
"271 10 CURVE SMOOTH",
"271 27 OFFCURVE",
"267 42 OFFCURVE",
"247 74 CURVE SMOOTH",
"221 114 OFFCURVE",
"206 171 OFFCURVE",
"203 270 CURVE SMOOTH"
);
},
{
closed = 1;
nodes = (
"271 580 OFFCURVE",
"489 580 CURVE SMOOTH",
"522 580 OFFCURVE",
"533 592 OFFCURVE",
"533 620 CURVE SMOOTH",
"533 667 OFFCURVE",
"489 698 OFFCURVE",
"432 700 CURVE SMOOTH",
"313 703 OFFCURVE",
"150 679 OFFCURVE",
"61 655 CURVE SMOOTH",
"31 649 OFFCURVE",
"20 631 OFFCURVE",
"20 607 CURVE SMOOTH",
"20 584 OFFCURVE",
"49 537 OFFCURVE",
"101 537 CURVE SMOOTH",
"146 537 OFFCURVE"
);
},
{
closed = 1;
nodes = (
"166 185 OFFCURVE",
"224 185 CURVE SMOOTH",
"289 185 OFFCURVE",
"374 190 OFFCURVE",
"452 209 CURVE SMOOTH",
"509 223 OFFCURVE",
"525 245 OFFCURVE",
"525 279 CURVE SMOOTH",
"525 307 OFFCURVE",
"508 322 OFFCURVE",
"465 322 CURVE SMOOTH",
"409 322 OFFCURVE",
"329 313 OFFCURVE",
"218 313 CURVE SMOOTH",
"182 313 OFFCURVE",
"153 294 OFFCURVE",
"153 252 CURVE SMOOTH",
"153 214 OFFCURVE"
);
}
);
width = 571;
}
);
unicode = 0046;
},
{
glyphname = G;
lastChange = "2020-07-01 17:25:42 +0000";
layers = (
{
background = {
paths = (
{
closed = 0;
nodes = (
"381 525 LINE",
"418 592 OFFCURVE",
"412 640 OFFCURVE",
"385 640 CURVE SMOOTH",
"299 640 OFFCURVE",
"101 396 OFFCURVE",
"101 236 CURVE SMOOTH",
"101 142 OFFCURVE",
"164 58 OFFCURVE",
"275 58 CURVE SMOOTH",
"381 58 OFFCURVE",
"548 166 OFFCURVE",
"602 337 CURVE",
"606 219 OFFCURVE",
"676 48 OFFCURVE",
"750 -59 CURVE SMOOTH"
);
},
{
closed = 0;
nodes = (
"275 58 LINE SMOOTH"
);
},
{
closed = 0;
nodes = (
"340 308 LINE",
"506 358 OFFCURVE",
"681 384 OFFCURVE",
"931 395 CURVE SMOOTH"
);
}
);
};
backgroundImage = {
crop = "{{0, 0}, {2004, 204}}";
imagePath = "Images/H_.glif-Regular.tif";
locked = "1";
transform = "{5.497, 0, 0, 5.497, -7718, -205}";
};
layerId = "DC44E50C-9AA1-421C-802C-D4D023281425";
paths = (
{
closed = 1;
nodes = (
"789 -119 OFFCURVE",
"810 -96 OFFCURVE",
"810 -75 CURVE SMOOTH",
"810 -52 OFFCURVE",
"807 -36 OFFCURVE",
"758 35 CURVE SMOOTH",
"734 70 OFFCURVE",
"681 200 OFFCURVE",
"666 297 CURVE SMOOTH",
"661 329 OFFCURVE",
"643 348 OFFCURVE",
"597 348 CURVE SMOOTH",
"562 348 OFFCURVE",
"541 338 OFFCURVE",
"524 306 CURVE SMOOTH",
"466 192 OFFCURVE",
"352 136 OFFCURVE",
"262 136 CURVE SMOOTH",
"201 136 OFFCURVE",
"161 176 OFFCURVE",
"161 227 CURVE SMOOTH",
"161 314 OFFCURVE",
"267 493 OFFCURVE",
"392 549 CURVE",
"318 576 LINE",
"307 527 OFFCURVE",
"339 481 OFFCURVE",
"373 481 CURVE SMOOTH",
"417 481 OFFCURVE",
"467 548 OFFCURVE",
"467 607 CURVE SMOOTH",
"467 662 OFFCURVE",
"436 708 OFFCURVE",
"385 708 CURVE SMOOTH",
"241 708 OFFCURVE",
"41 433 OFFCURVE",
"41 257 CURVE SMOOTH",
"41 111 OFFCURVE",
"160 -10 OFFCURVE",
"288 -10 CURVE SMOOTH",
"403 -10 OFFCURVE",
"532 71 OFFCURVE",
"625 180 CURVE",
"571 204 LINE",
"595 96 OFFCURVE",
"643 -10 OFFCURVE",
"681 -64 CURVE SMOOTH",
"713 -111 OFFCURVE",
"739 -119 OFFCURVE",
"764 -119 CURVE SMOOTH"
);
},
{
closed = 1;
nodes = (
"358 235 OFFCURVE",
"387 243 OFFCURVE",
"432 257 CURVE",
"497 279 OFFCURVE",
"600 312 OFFCURVE",
"743 319 CURVE SMOOTH",
"805 322 OFFCURVE",
"831 350 OFFCURVE",
"831 384 CURVE SMOOTH",
"831 416 OFFCURVE",
"812 435 OFFCURVE",
"711 435 CURVE SMOOTH",
"572 434 OFFCURVE",
"446 421 OFFCURVE",
"332 395 CURVE SMOOTH",
"282 384 OFFCURVE",
"269 362 OFFCURVE",
"269 329 CURVE SMOOTH",
"269 278 OFFCURVE",
"302 235 OFFCURVE",
"344 235 CURVE"
);
}
);
width = 862;
}
);
unicode = 0047;
},
{
glyphname = H;
lastChange = "2020-07-01 14:43:47 +0000";
layers = (
{
associatedMasterId = "DC44E50C-9AA1-421C-802C-D4D023281425";
background = {
paths = (
{
closed = 0;
nodes = (
"100 680 LINE",
"98 535 OFFCURVE",
"130 269 OFFCURVE",
"140 38 CURVE SMOOTH"
);
},
{
closed = 0;
nodes = (
"473 649 LINE",
"523 494 OFFCURVE",
"463 268 OFFCURVE",
"592 -51 CURVE SMOOTH"
);
},
{
closed = 0;
nodes = (
"100 680 LINE",
"98 535 OFFCURVE",
"130 269 OFFCURVE",
"140 38 CURVE SMOOTH"
);
},
{
closed = 0;
nodes = (
"473 649 LINE",
"523 494 OFFCURVE",
"463 268 OFFCURVE",
"592 -51 CURVE SMOOTH"
);
},
{
closed = 0;
nodes = (
"83 352 LINE",
"185 383 OFFCURVE",
"333 415 OFFCURVE",
"538 398 CURVE SMOOTH"
);
}
);
};
backgroundImage = {
crop = "{{0, 0}, {2004, 204}}";
imagePath = "Images/H_.glif-Regular.tif";
locked = "1";
transform = "{5.4968, 0, 0, 5.4968, -122, -206}";
};
layerId = "564F48AE-F8E7-4E88-87F8-E4F82584D19D";
name = spacer;
paths = (
{
closed = 1;
nodes = (
"532 -180 LINE SMOOTH",
"571 -180 OFFCURVE",
"592 -159 OFFCURVE",
"592 -120 CURVE SMOOTH",
"592 800 LINE SMOOTH",
"592 839 OFFCURVE",
"571 860 OFFCURVE",
"532 860 CURVE SMOOTH",
"120 860 LINE SMOOTH",
"81 860 OFFCURVE",
"60 839 OFFCURVE",
"60 800 CURVE SMOOTH",
"60 -120 LINE SMOOTH",
"60 -159 OFFCURVE",
"81 -180 OFFCURVE",
"120 -180 CURVE SMOOTH"
);
},
{
closed = 1;
nodes = (
"180 740 LINE",
"472 740 LINE",
"472 -60 LINE",
"180 -60 LINE"
);
}
);
width = 652;
},
{
background = {
paths = (
{
closed = 0;
nodes = (
"122 680 LINE",
"120 535 OFFCURVE",
"152 269 OFFCURVE",
"162 38 CURVE SMOOTH"
);
},
{
closed = 0;
nodes = (
"495 649 LINE",
"545 494 OFFCURVE",
"485 268 OFFCURVE",
"614 -51 CURVE SMOOTH"
);
},
{
closed = 0;
nodes = (
"122 680 LINE",
"120 535 OFFCURVE",
"152 269 OFFCURVE",
"162 38 CURVE SMOOTH"
);
},
{
closed = 0;
nodes = (
"495 649 LINE",
"545 494 OFFCURVE",
"485 268 OFFCURVE",
"614 -51 CURVE SMOOTH"
);
},
{
closed = 0;
nodes = (
"105 352 LINE",
"207 383 OFFCURVE",
"355 415 OFFCURVE",
"560 398 CURVE SMOOTH"
);
}
);
};
backgroundImage = {
crop = "{{0, 0}, {2004, 204}}";
imagePath = "Images/H_.glif-Regular.tif";
locked = "1";
transform = "{5.4968, 0, 0, 5.4968, -100, -206}";
};
layerId = "DC44E50C-9AA1-421C-802C-D4D023281425";
paths = (
{
closed = 1;
nodes = (
"614 -90 OFFCURVE",
"633 -68 OFFCURVE",
"625 -41 CURVE SMOOTH",
"597 61 OFFCURVE",
"587 152 OFFCURVE",
"585 233 CURVE SMOOTH",
"584 319 OFFCURVE",
"599 454 OFFCURVE",
"599 563 CURVE SMOOTH",
"599 654 OFFCURVE",
"547 704 OFFCURVE",
"495 704 CURVE SMOOTH",
"473 704 OFFCURVE",
"453 690 OFFCURVE",
"453 658 CURVE SMOOTH",
"453 617 OFFCURVE",
"463 372 OFFCURVE",
"463 204 CURVE SMOOTH",
"463 55 OFFCURVE",
"524 -90 OFFCURVE",
"581 -90 CURVE SMOOTH"
);
},
{
closed = 1;
nodes = (
"202 -22 OFFCURVE",
"222 0 OFFCURVE",
"222 26 CURVE",
"222 183 OFFCURVE",
"192 409 OFFCURVE",
"195 640 CURVE SMOOTH",
"195 696 OFFCURVE",
"134 740 OFFCURVE",
"106 740 CURVE SMOOTH",
"75 740 OFFCURVE",
"62 722 OFFCURVE",
"62 696 CURVE SMOOTH",
"60 554 OFFCURVE",
"90 238 OFFCURVE",
"96 87 CURVE SMOOTH",
"99 25 OFFCURVE",
"139 -22 OFFCURVE",
"177 -22 CURVE"
);
},
{
closed = 1;
nodes = (
"231 290 OFFCURVE",
"333 338 OFFCURVE",
"617 338 CURVE",
"635 338 OFFCURVE",
"650 355 OFFCURVE",
"650 376 CURVE",
"650 408 OFFCURVE",
"607 461 OFFCURVE",
"487 461 CURVE SMOOTH",
"348 461 OFFCURVE",
"214 448 OFFCURVE",
"74 420 CURVE SMOOTH",
"50 415 OFFCURVE",
"44 398 OFFCURVE",
"44 380 CURVE SMOOTH",
"44 336 OFFCURVE",
"87 290 OFFCURVE",
"167 290 CURVE SMOOTH"
);
}
);
width = 687;
}
);
unicode = 0048;
},
{
glyphname = I;
lastChange = "2020-07-01 02:22:37 +0000";
layers = (
{
background = {
paths = (
{
closed = 0;
nodes = (
"94 608 LINE",
"250 632 OFFCURVE",
"428 620 OFFCURVE",
"525 634 CURVE SMOOTH"
);
},
{
closed = 0;
nodes = (
"115 42 LINE",
"261 84 OFFCURVE",
"384 105 OFFCURVE",
"569 105 CURVE SMOOTH"
);
},
{
closed = 0;
nodes = (
"322 108 LINE",
"318 302 OFFCURVE",
"342 392 OFFCURVE",
"354 601 CURVE SMOOTH"
);
}
);
};
backgroundImage = {
crop = "{{0, 0}, {2004, 204}}";
imagePath = "Images/H_.glif-Regular.tif";
locked = "1";
transform = "{5.497, 0, 0, 5.497, -9534, -208}";
};
layerId = "DC44E50C-9AA1-421C-802C-D4D023281425";
paths = (
{
closed = 1;
nodes = (
"131 -38 OFFCURVE",
"137 -37 OFFCURVE",
"143 -35 CURVE SMOOTH",
"294 8 OFFCURVE",
"401 32 OFFCURVE",
"528 45 CURVE SMOOTH",
"592 52 OFFCURVE",
"619 78 OFFCURVE",
"619 119 CURVE SMOOTH",
"619 148 OFFCURVE",
"597 170 OFFCURVE",
"503 170 CURVE SMOOTH",
"304 170 OFFCURVE",
"152 151 OFFCURVE",
"80 130 CURVE SMOOTH",
"54 123 OFFCURVE",
"35 100 OFFCURVE",
"35 72 CURVE SMOOTH",
"35 11 OFFCURVE",
"75 -38 OFFCURVE",
"125 -38 CURVE SMOOTH"
);
},
{
closed = 1;
nodes = (
"94 548 OFFCURVE",
"327 556 OFFCURVE",
"444 563 CURVE SMOOTH",
"516 567 OFFCURVE",
"569 599 OFFCURVE",
"569 654 CURVE SMOOTH",
"569 691 OFFCURVE",
"547 700 OFFCURVE",
"473 700 CURVE SMOOTH",
"422 700 OFFCURVE",
"187 704 OFFCURVE",
"76 679 CURVE",
"33 673 OFFCURVE",
"24 650 OFFCURVE",
"24 620 CURVE SMOOTH",
"24 580 OFFCURVE",
"42 548 OFFCURVE",
"84 548 CURVE SMOOTH"
);
},
{
closed = 1;
nodes = (
"356 80 OFFCURVE",
"372 96 OFFCURVE",
"372 129 CURVE SMOOTH",
"372 334 OFFCURVE",
"409 499 OFFCURVE",
"409 585 CURVE SMOOTH",
"409 624 OFFCURVE",
"371 655 OFFCURVE",
"324 655 CURVE SMOOTH",
"289 655 OFFCURVE",
"278 638 OFFCURVE",
"278 604 CURVE SMOOTH",
"278 485 OFFCURVE",
"258 322 OFFCURVE",
"258 157 CURVE SMOOTH",
"258 110 OFFCURVE",
"286 80 OFFCURVE",
"328 80 CURVE SMOOTH"
);
}
);
width = 643;
}
);
unicode = 0049;
},
{
color = 3;
glyphname = J;
lastChange = "2020-07-03 03:35:46 +0000";
layers = (
{
layerId = "DC44E50C-9AA1-421C-802C-D4D023281425";
paths = (
{
closed = 1;
nodes = (
"386 8 OFFCURVE",
"470 76 OFFCURVE",
"470 196 CURVE SMOOTH",
"470 304 OFFCURVE",
"413 500 OFFCURVE",
"350 612 CURVE SMOOTH",
"340 631 OFFCURVE",
"320 644 OFFCURVE",
"297 644 CURVE SMOOTH",
"264 644 OFFCURVE",
"237 617 OFFCURVE",
"237 584 CURVE SMOOTH",
"237 573 OFFCURVE",
"240 562 OFFCURVE",
"245 554 CURVE SMOOTH",
"299 458 OFFCURVE",
"350 285 OFFCURVE",
"350 196 CURVE SMOOTH",
"350 149 OFFCURVE",
"323 128 OFFCURVE",
"242 128 CURVE SMOOTH",
"186 128 OFFCURVE",
"164 143 OFFCURVE",
"164 170 CURVE SMOOTH",
"164 189 OFFCURVE",
"170 206 OFFCURVE",
"181 220 CURVE SMOOTH",
"190 230 OFFCURVE",
"195 243 OFFCURVE",
"195 258 CURVE SMOOTH",
"195 291 OFFCURVE",
"168 318 OFFCURVE",
"135 318 CURVE SMOOTH",
"116 318 OFFCURVE",
"99 309 OFFCURVE",
"88 295 CURVE SMOOTH",
"61 261 OFFCURVE",
"44 214 OFFCURVE",
"44 170 CURVE SMOOTH",
"44 69 OFFCURVE",
"124 8 OFFCURVE",
"242 8 CURVE SMOOTH"
);
},
{
closed = 1;
nodes = (
"148 524 OFFCURVE",
"186 527 OFFCURVE",
"228 530 CURVE SMOOTH",
"285 535 OFFCURVE",
"350 540 OFFCURVE",
"419 540 CURVE SMOOTH",
"434 540 OFFCURVE",
"449 540 OFFCURVE",
"464 539 CURVE SMOOTH",
"464 539 OFFCURVE",
"465 539 OFFCURVE",
"466 539 CURVE SMOOTH",
"499 539 OFFCURVE",
"526 566 OFFCURVE",
"526 599 CURVE SMOOTH",
"526 632 OFFCURVE",
"500 658 OFFCURVE",
"468 659 CURVE SMOOTH",
"452 660 OFFCURVE",
"436 660 OFFCURVE",
"419 660 CURVE SMOOTH",
"345 660 OFFCURVE",
"276 654 OFFCURVE",
"219 650 CURVE SMOOTH",
"177 647 OFFCURVE",
"143 644 OFFCURVE",
"117 644 CURVE SMOOTH",
"108 644 OFFCURVE",
"102 646 OFFCURVE",
"91 654 CURVE SMOOTH",
"81 661 OFFCURVE",
"69 665 OFFCURVE",
"56 665 CURVE SMOOTH",
"23 665 OFFCURVE",
"-4 638 OFFCURVE",
"-4 605 CURVE SMOOTH",
"-4 584 OFFCURVE",
"7 566 OFFCURVE",
"23 555 CURVE SMOOTH",
"52 535 OFFCURVE",
"85 524 OFFCURVE",
"117 524 CURVE SMOOTH"
);
}
);
width = 600;
}
);
unicode = 004A;
},
{
color = 3;
glyphname = K;
lastChange = "2020-07-03 03:35:46 +0000";
layers = (
{
layerId = "DC44E50C-9AA1-421C-802C-D4D023281425";
paths = (
{
closed = 1;
nodes = (
"159 -1 OFFCURVE",
"186 26 OFFCURVE",
"186 59 CURVE SMOOTH",
"186 66 OFFCURVE",
"185 72 OFFCURVE",
"183 78 CURVE SMOOTH",
"174 109 OFFCURVE",
"169 152 OFFCURVE",
"169 209 CURVE SMOOTH",
"169 272 OFFCURVE",
"176 338 OFFCURVE",
"183 398 CURVE SMOOTH",
"188 446 OFFCURVE",
"193 491 OFFCURVE",
"193 526 CURVE SMOOTH",
"193 568 OFFCURVE",
"185 611 OFFCURVE",
"171 650 CURVE SMOOTH",
"162 673 OFFCURVE",
"140 690 OFFCURVE",
"114 690 CURVE SMOOTH",
"81 690 OFFCURVE",
"54 663 OFFCURVE",
"54 630 CURVE SMOOTH",
"54 622 OFFCURVE",
"56 614 OFFCURVE",
"58 607 CURVE SMOOTH",
"69 580 OFFCURVE",
"73 556 OFFCURVE",
"73 526 CURVE SMOOTH",
"73 498 OFFCURVE",
"69 459 OFFCURVE",
"64 411 CURVE SMOOTH",
"57 351 OFFCURVE",
"49 279 OFFCURVE",
"49 209 CURVE SMOOTH",
"49 142 OFFCURVE",
"56 84 OFFCURVE",
"68 43 CURVE SMOOTH",
"75 17 OFFCURVE",
"99 -1 OFFCURVE",
"126 -1 CURVE SMOOTH"
);
},
{
closed = 1;
nodes = (
"596 8 OFFCURVE",
"623 35 OFFCURVE",
"623 68 CURVE SMOOTH",
"623 98 OFFCURVE",
"601 123 OFFCURVE",
"571 127 CURVE SMOOTH",
"386 157 OFFCURVE",
"249 218 OFFCURVE",
"249 250 CURVE SMOOTH",
"249 275 OFFCURVE",
"355 361 OFFCURVE",
"472 417 CURVE SMOOTH",
"493 427 OFFCURVE",
"508 448 OFFCURVE",
"508 472 CURVE SMOOTH",
"508 505 OFFCURVE",
"481 532 OFFCURVE",
"448 532 CURVE SMOOTH",
"438 532 OFFCURVE",
"429 530 OFFCURVE",
"421 526 CURVE SMOOTH",
"258 448 OFFCURVE",
"129 342 OFFCURVE",
"129 250 CURVE SMOOTH",
"129 125 OFFCURVE",
"308 47 OFFCURVE",
"553 9 CURVE SMOOTH",
"556 8 OFFCURVE",
"559 8 OFFCURVE",
"563 8 CURVE SMOOTH"
);
}
);
width = 600;
}
);
unicode = 004B;
},
{
color = 3;
glyphname = L;
lastChange = "2020-07-03 03:35:46 +0000";
layers = (
{
layerId = "DC44E50C-9AA1-421C-802C-D4D023281425";
paths = (
{
closed = 1;
nodes = (
"303 121 OFFCURVE",
"380 140 OFFCURVE",
"440 174 CURVE SMOOTH",
"458 184 OFFCURVE",
"471 204 OFFCURVE",
"471 227 CURVE SMOOTH",
"471 260 OFFCURVE",
"444 287 OFFCURVE",
"411 287 CURVE SMOOTH",
"400 287 OFFCURVE",
"389 284 OFFCURVE",
"380 279 CURVE SMOOTH",
"337 254 OFFCURVE",
"285 241 OFFCURVE",
"227 241 CURVE SMOOTH",
"179 241 OFFCURVE",
"161 264 OFFCURVE",
"161 345 CURVE SMOOTH",
"161 373 OFFCURVE",
"165 402 OFFCURVE",
"169 435 CURVE SMOOTH",
"174 467 OFFCURVE",
"179 503 OFFCURVE",
"179 537 CURVE SMOOTH",
"179 549 OFFCURVE",
"178 561 OFFCURVE",
"177 572 CURVE SMOOTH",
"173 603 OFFCURVE",
"148 626 OFFCURVE",
"117 626 CURVE SMOOTH",
"84 626 OFFCURVE",
"57 599 OFFCURVE",
"57 566 CURVE SMOOTH",
"57 563 OFFCURVE",
"57 561 OFFCURVE",
"58 558 CURVE SMOOTH",
"58 552 OFFCURVE",
"59 545 OFFCURVE",
"59 537 CURVE SMOOTH",
"59 511 OFFCURVE",
"55 483 OFFCURVE",
"50 451 CURVE SMOOTH",
"46 418 OFFCURVE",
"41 381 OFFCURVE",
"41 345 CURVE SMOOTH",
"41 201 OFFCURVE",
"106 121 OFFCURVE",
"227 121 CURVE SMOOTH"
);
}
);
width = 510;
}
);
unicode = 004C;
},
{
color = 3;
glyphname = M;
lastChange = "2020-07-03 03:35:46 +0000";
layers = (
{
layerId = "DC44E50C-9AA1-421C-802C-D4D023281425";
paths = (
{
closed = 1;
nodes = (
"830 52 OFFCURVE",
"857 79 OFFCURVE",
"857 112 CURVE SMOOTH",
"857 124 OFFCURVE",
"854 134 OFFCURVE",
"848 143 CURVE SMOOTH",
"813 202 OFFCURVE",
"796 300 OFFCURVE",
"780 390 CURVE SMOOTH",
"761 500 OFFCURVE",
"747 594 OFFCURVE",
"670 594 CURVE SMOOTH",
"602 594 OFFCURVE",
"519 460 OFFCURVE",
"441 296 CURVE",
"431 328 OFFCURVE",
"423 363 OFFCURVE",
"414 398 CURVE SMOOTH",
"382 529 OFFCURVE",
"355 618 OFFCURVE",
"271 618 CURVE SMOOTH",
"232 618 OFFCURVE",
"195 583 OFFCURVE",
"163 530 CURVE",
"163 531 OFFCURVE",
"163 532 OFFCURVE",
"162 534 CURVE SMOOTH",
"156 560 OFFCURVE",
"132 579 OFFCURVE",
"104 579 CURVE SMOOTH",
"71 579 OFFCURVE",
"44 552 OFFCURVE",
"44 519 CURVE SMOOTH",
"44 513 OFFCURVE",
"45 507 OFFCURVE",
"46 502 CURVE SMOOTH",
"54 473 OFFCURVE",
"57 439 OFFCURVE",
"57 370 CURVE SMOOTH",
"57 364 OFFCURVE",
"57 358 OFFCURVE",
"57 351 CURVE SMOOTH",
"57 345 OFFCURVE",
"57 338 OFFCURVE",
"57 331 CURVE SMOOTH",
"57 292 OFFCURVE",
"58 248 OFFCURVE",
"62 201 CURVE SMOOTH",
"65 162 OFFCURVE",
"89 143 OFFCURVE",
"127 146 CURVE SMOOTH",
"133 147 LINE SMOOTH",
"170 150 OFFCURVE",
"188 169 OFFCURVE",
"193 206 CURVE SMOOTH",
"207 297 OFFCURVE",
"246 437 OFFCURVE",
"263 483 CURVE",
"270 465 OFFCURVE",
"282 432 OFFCURVE",
"298 369 CURVE SMOOTH",
"314 302 OFFCURVE",
"334 220 OFFCURVE",
"368 157 CURVE SMOOTH",
"384 127 OFFCURVE",
"410 118 OFFCURVE",
"443 122 CURVE SMOOTH",
"450 123 LINE SMOOTH",
"483 127 OFFCURVE",
"503 142 OFFCURVE",
"517 171 CURVE SMOOTH",
"551 243 OFFCURVE",
"614 365 OFFCURVE",
"648 430 CURVE",
"652 415 OFFCURVE",
"658 396 OFFCURVE",
"662 370 CURVE SMOOTH",
"678 280 OFFCURVE",
"699 160 OFFCURVE",
"745 82 CURVE SMOOTH",
"755 64 OFFCURVE",
"775 52 OFFCURVE",
"797 52 CURVE SMOOTH"
);
}
);
width = 896;
}
);
unicode = 004D;
},
{
glyphname = N;
lastChange = "2020-07-01 17:22:48 +0000";
layers = (
{
background = {
paths = (
{
closed = 0;
nodes = (
"100 54 LINE",
"155 219 OFFCURVE",
"138 474 OFFCURVE",
"115 638 CURVE",
"340 450 OFFCURVE",
"487 64 OFFCURVE",
"675 64 CURVE SMOOTH",
"762 64 OFFCURVE",
"689 433 OFFCURVE",
"745 678 CURVE SMOOTH"
);
}
);
};
backgroundImage = {
crop = "{{0, 0}, {2004, 204}}";
imagePath = "Images/H_.glif-Regular.tif";
locked = "1";
transform = "{5.497, 0, 0, 5.497, -6805, -206}";
};
layerId = "DC44E50C-9AA1-421C-802C-D4D023281425";
paths = (
{
closed = 1;
nodes = (
"151 -6 OFFCURVE",
"170 4 OFFCURVE",
"177 29 CURVE SMOOTH",
"203 108 OFFCURVE",
"217 220 OFFCURVE",
"217 342 CURVE SMOOTH",
"217 396 OFFCURVE",
"214 450 OFFCURVE",
"210 501 CURVE",
"179 488 LINE",
"256 404 OFFCURVE",
"403 182 OFFCURVE",
"511 82 CURVE SMOOTH",
"565 32 OFFCURVE",
"616 -6 OFFCURVE",
"700 -6 CURVE SMOOTH",
"764 -6 OFFCURVE",
"792 65 OFFCURVE",
"792 211 CURVE SMOOTH",
"792 545 OFFCURVE",
"823 556 OFFCURVE",
"823 639 CURVE SMOOTH",
"823 682 OFFCURVE",
"766 743 OFFCURVE",
"707 743 CURVE SMOOTH",
"665 743 OFFCURVE",
"642 690 OFFCURVE",
"639 544 CURVE SMOOTH",
"639 452 OFFCURVE",
"647 355 OFFCURVE",
"647 256 CURVE SMOOTH",
"647 149 OFFCURVE",
"619 125 OFFCURVE",
"596 108 CURVE",
"658 142 LINE",
"534 166 OFFCURVE",
"306 531 OFFCURVE",
"208 626 CURVE SMOOTH",
"173 659 OFFCURVE",
"146 676 OFFCURVE",
"107 676 CURVE SMOOTH",
"62 676 OFFCURVE",
"39 648 OFFCURVE",
"39 605 CURVE SMOOTH",
"39 511 OFFCURVE",
"57 433 OFFCURVE",
"57 355 CURVE SMOOTH",
"57 227 OFFCURVE",
"31 203 OFFCURVE",
"31 107 CURVE SMOOTH",
"31 43 OFFCURVE",
"71 -6 OFFCURVE",
"120 -6 CURVE SMOOTH"
);
}
);
width = 855;
}
);
unicode = 004E;
},
{
glyphname = O;
lastChange = "2020-07-01 17:21:16 +0000";
layers = (
{
background = {
paths = (
{
closed = 0;
nodes = (
"331 588 LINE",
"157 462 OFFCURVE",
"100 400 OFFCURVE",
"100 285 CURVE SMOOTH",
"100 181 OFFCURVE",
"205 42 OFFCURVE",
"373 42 CURVE SMOOTH",
"549 42 OFFCURVE",
"735 161 OFFCURVE",
"735 295 CURVE SMOOTH",
"735 449 OFFCURVE",
"595 651 OFFCURVE",
"406 651 CURVE SMOOTH",
"294 651 OFFCURVE",
"288 539 OFFCURVE",
"343 486 CURVE SMOOTH"
);
}
);
};
backgroundImage = {
crop = "{{0, 0}, {2004, 204}}";
imagePath = "Images/H_.glif-Regular.tif";
locked = "1";
transform = "{5.497, 0, 0, 5.497, -8719, -208}";
};
layerId = "DC44E50C-9AA1-421C-802C-D4D023281425";
paths = (
{
closed = 1;
nodes = (
"40 449 OFFCURVE",
"40 285 CURVE SMOOTH",
"40 125 OFFCURVE",
"196 -18 OFFCURVE",
"373 -18 CURVE SMOOTH",
"640 -18 OFFCURVE",
"795 129 OFFCURVE",
"795 295 CURVE SMOOTH",
"795 507 OFFCURVE",
"607 711 OFFCURVE",
"406 711 CURVE SMOOTH",
"303 711 OFFCURVE",
"251 658 OFFCURVE",
"251 590 CURVE SMOOTH",
"251 526 OFFCURVE",
"284 455 OFFCURVE",
"344 455 CURVE SMOOTH",
"362 455 OFFCURVE",
"376 468 OFFCURVE",
"376 483 CURVE SMOOTH",
"376 503 OFFCURVE",
"373 505 OFFCURVE",
"373 522 CURVE SMOOTH",
"373 538 OFFCURVE",
"382 547 OFFCURVE",
"410 547 CURVE SMOOTH",
"541 547 OFFCURVE",
"675 419 OFFCURVE",
"675 295 CURVE SMOOTH",
"675 219 OFFCURVE",
"523 137 OFFCURVE",
"373 137 CURVE SMOOTH",
"266 137 OFFCURVE",
"168 211 OFFCURVE",
"168 287 CURVE SMOOTH",
"168 351 OFFCURVE",
"199 398 OFFCURVE",
"308 469 CURVE SMOOTH",
"348 495 OFFCURVE",
"356 513 OFFCURVE",
"356 546 CURVE SMOOTH",
"356 598 OFFCURVE",
"330 621 OFFCURVE",
"299 620 CURVE SMOOTH",
"206 618 OFFCURVE"
);
}
);
width = 835;
}
);
unicode = 004F;
},
{
color = 3;
glyphname = P;
lastChange = "2020-07-03 03:35:46 +0000";
layers = (
{
layerId = "DC44E50C-9AA1-421C-802C-D4D023281425";
paths = (
{
closed = 1;
nodes = (
"199 195 OFFCURVE",
"268 195 CURVE SMOOTH",
"389 195 OFFCURVE",
"536 340 OFFCURVE",
"536 461 CURVE SMOOTH",
"536 584 OFFCURVE",
"442 671 OFFCURVE",
"311 671 CURVE SMOOTH",
"158 671 OFFCURVE",
"67 589 OFFCURVE",
"67 449 CURVE SMOOTH",
"67 385 OFFCURVE",
"83 326 OFFCURVE",
"100 264 CURVE SMOOTH",
"115 208 OFFCURVE",
"131 148 OFFCURVE",
"141 71 CURVE SMOOTH",
"145 41 OFFCURVE",
"170 18 OFFCURVE",
"201 18 CURVE SMOOTH",
"234 18 OFFCURVE",
"261 45 OFFCURVE",
"261 78 CURVE SMOOTH",
"261 81 OFFCURVE",
"261 84 OFFCURVE",
"260 87 CURVE SMOOTH",
"251 154 OFFCURVE",
"247 170 OFFCURVE",
"211 313 CURVE SMOOTH",
"197 366 OFFCURVE",
"187 406 OFFCURVE",
"187 449 CURVE SMOOTH",
"187 520 OFFCURVE",
"222 551 OFFCURVE",
"311 551 CURVE SMOOTH",
"376 551 OFFCURVE",
"416 516 OFFCURVE",
"416 461 CURVE SMOOTH",
"416 407 OFFCURVE",
"322 315 OFFCURVE",
"268 315 CURVE SMOOTH",
"201 315 OFFCURVE",
"210 338 OFFCURVE",
"174 338 CURVE SMOOTH",
"152 338 OFFCURVE",
"127 319 OFFCURVE",
"127 289 CURVE SMOOTH",
"127 233 OFFCURVE"
);
}
);
width = 600;
}
);
unicode = 0050;
},
{
color = 3;
glyphname = Q;
lastChange = "2020-07-03 03:35:46 +0000";
layers = (
{
layerId = "DC44E50C-9AA1-421C-802C-D4D023281425";
paths = (
{
closed = 1;
nodes = (
"307 616 OFFCURVE",
"291 630 OFFCURVE",
"269 630 CURVE SMOOTH",
"249 630 OFFCURVE",
"228 621 OFFCURVE",
"213 611 CURVE SMOOTH",
"109 544 OFFCURVE",
"46 440 OFFCURVE",
"46 330 CURVE SMOOTH",
"46 144 OFFCURVE",
"187 31 OFFCURVE",
"416 31 CURVE SMOOTH",
"620 31 OFFCURVE",
"776 142 OFFCURVE",
"776 292 CURVE SMOOTH",
"776 506 OFFCURVE",
"650 695 OFFCURVE",
"498 695 CURVE SMOOTH",
"407 695 OFFCURVE",
"318 649 OFFCURVE",
"238 587 CURVE SMOOTH",
"216 570 OFFCURVE",
"200 549 OFFCURVE",
"200 515 CURVE SMOOTH",
"201 477 OFFCURVE",
"236 471 OFFCURVE",
"246 471 CURVE SMOOTH",
"286 471 OFFCURVE",
"296 477 OFFCURVE",
"330 508 CURVE SMOOTH",
"376 549 OFFCURVE",
"439 575 OFFCURVE",
"498 575 CURVE SMOOTH",
"577 575 OFFCURVE",
"656 435 OFFCURVE",
"656 292 CURVE SMOOTH",
"656 216 OFFCURVE",
"554 151 OFFCURVE",
"416 151 CURVE SMOOTH",
"252 151 OFFCURVE",
"166 215 OFFCURVE",
"166 330 CURVE SMOOTH",
"166 395 OFFCURVE",
"204 459 OFFCURVE",
"268 504 CURVE SMOOTH",
"297 527 OFFCURVE",
"308 552 OFFCURVE",
"307 581 CURVE"
);
},
{
closed = 1;
nodes = (
"782 -159 OFFCURVE",
"809 -132 OFFCURVE",
"809 -99 CURVE SMOOTH",
"809 -78 OFFCURVE",
"799 -60 OFFCURVE",
"783 -49 CURVE SMOOTH",
"705 5 OFFCURVE",
"644 107 OFFCURVE",
"591 194 CURVE SMOOTH",
"565 237 OFFCURVE",
"541 278 OFFCURVE",
"518 305 CURVE SMOOTH",
"507 318 OFFCURVE",
"490 326 OFFCURVE",
"472 326 CURVE SMOOTH",
"439 326 OFFCURVE",
"412 299 OFFCURVE",
"412 266 CURVE SMOOTH",
"412 251 OFFCURVE",
"418 237 OFFCURVE",
"427 227 CURVE SMOOTH",
"443 208 OFFCURVE",
"463 175 OFFCURVE",
"488 132 CURVE SMOOTH",
"541 44 OFFCURVE",
"616 -78 OFFCURVE",
"714 -148 CURVE SMOOTH",
"724 -155 OFFCURVE",
"736 -159 OFFCURVE",
"749 -159 CURVE SMOOTH"
);
}
);
width = 825;
}
);
unicode = 0051;
},
{
glyphname = S;
lastChange = "2020-07-01 17:21:41 +0000";
layers = (
{
background = {
paths = (
{
closed = 0;
nodes = (
"486 676 LINE",
"316 651 OFFCURVE",
"122 518 OFFCURVE",
"122 442 CURVE SMOOTH",
"122 309 OFFCURVE",
"454 219 OFFCURVE",
"454 124 CURVE SMOOTH",
"454 25 OFFCURVE",
"199 15 OFFCURVE",
"119 50 CURVE SMOOTH"
);
}
);
};
backgroundImage = {
crop = "{{0, 0}, {2004, 204}}";
imagePath = "Images/H_.glif-Regular.tif";
locked = "1";
transform = "{5.497, 0, 0, 5.497, -4084, -206}";
};
layerId = "DC44E50C-9AA1-421C-802C-D4D023281425";
paths = (
{
closed = 1;
nodes = (
"373 -22 OFFCURVE",
"527 28 OFFCURVE",
"527 118 CURVE SMOOTH",
"527 279 OFFCURVE",
"195 328 OFFCURVE",
"195 434 CURVE SMOOTH",
"195 475 OFFCURVE",
"355 568 OFFCURVE",
"475 600 CURVE SMOOTH",
"505 608 OFFCURVE",
"516 621 OFFCURVE",
"516 649 CURVE SMOOTH",
"516 697 OFFCURVE",
"487 736 OFFCURVE",
"427 736 CURVE SMOOTH",
"314 736 OFFCURVE",
"62 593 OFFCURVE",
"62 467 CURVE SMOOTH",
"62 260 OFFCURVE",
"363 207 OFFCURVE",
"363 149 CURVE SMOOTH",
"363 142 OFFCURVE",
"279 119 OFFCURVE",
"196 119 CURVE SMOOTH",
"127 119 OFFCURVE",
"114 124 OFFCURVE",
"81 124 CURVE SMOOTH",
"54 124 OFFCURVE",
"45 111 OFFCURVE",
"45 89 CURVE SMOOTH",
"45 38 OFFCURVE",
"101 -22 OFFCURVE",
"190 -22 CURVE SMOOTH"
);
}
);
width = 549;
}
);
unicode = 0053;
},
{
glyphname = T;
lastChange = "2020-07-01 15:33:34 +0000";
layers = (
{
background = {
paths = (
{
closed = 0;
nodes = (
"12 640 LINE",
"242 640 OFFCURVE",
"414 613 OFFCURVE",
"601 639 CURVE SMOOTH"
);
},
{
closed = 0;
nodes = (
"391 28 LINE",
"339 160 OFFCURVE",
"327 330 OFFCURVE",
"325 620 CURVE SMOOTH"
);
}
);
};
backgroundImage = {
crop = "{{0, 0}, {2004, 204}}";
imagePath = "Images/H_.glif-Regular.tif";
locked = "1";
transform = "{5.497, 0, 0, 5.497, -4738, -206}";
};
layerId = "DC44E50C-9AA1-421C-802C-D4D023281425";
paths = (
{
closed = 1;
nodes = (
"265 325 OFFCURVE",
"275 164 OFFCURVE",
"305 87 CURVE SMOOTH",
"336 8 OFFCURVE",
"366 -17 OFFCURVE",
"406 -17 CURVE SMOOTH",
"431 -17 OFFCURVE",
"442 -5 OFFCURVE",
"442 28 CURVE SMOOTH",
"442 69 OFFCURVE",
"398 159 OFFCURVE",
"398 529 CURVE SMOOTH",
"398 617 OFFCURVE",
"374 650 OFFCURVE",
"311 650 CURVE SMOOTH",
"283 650 OFFCURVE",
"265 632 OFFCURVE",
"265 606 CURVE SMOOTH"
);
},
{
closed = 1;
nodes = (
"226 568 OFFCURVE",
"326 568 OFFCURVE",
"484 568 CURVE SMOOTH",
"561 568 OFFCURVE",
"641 589 OFFCURVE",
"641 639 CURVE SMOOTH",
"641 672 OFFCURVE",
"614 699 OFFCURVE",
"581 699 CURVE SMOOTH",
"520 699 OFFCURVE",
"488 688 OFFCURVE",
"406 688 CURVE SMOOTH",
"286 688 OFFCURVE",
"202 700 OFFCURVE",
"55 700 CURVE SMOOTH",
"22 700 OFFCURVE",
"9 682 OFFCURVE",
"9 660 CURVE SMOOTH",
"9 614 OFFCURVE",
"27 587 OFFCURVE",
"97 580 CURVE"
);
}
);
width = 650;
}
);
unicode = 0054;
},
{
glyphname = U;
lastChange = "2020-07-01 15:07:06 +0000";
layers = (
{
background = {
paths = (
{
closed = 0;
nodes = (
"78 656 LINE",
"113 598 OFFCURVE",
"130 510 OFFCURVE",
"136 420 CURVE SMOOTH",
"145 295 OFFCURVE",
"185 78 OFFCURVE",
"373 78 CURVE SMOOTH",
"635 78 OFFCURVE",
"523 453 OFFCURVE",
"546 612 CURVE SMOOTH"
);
}
);
};
backgroundImage = {
crop = "{{0, 0}, {2004, 204}}";
imagePath = "Images/H_.glif-Regular.tif";
locked = "1";
transform = "{5.497, 0, 0, 5.497, -6064, -206}";
};
layerId = "DC44E50C-9AA1-421C-802C-D4D023281425";
paths = (
{
closed = 1;
nodes = (
"540 -13 OFFCURVE",
"611 91 OFFCURVE",
"611 242 CURVE SMOOTH",
"611 386 OFFCURVE",
"606 500 OFFCURVE",
"606 645 CURVE SMOOTH",
"606 688 OFFCURVE",
"587 712 OFFCURVE",
"555 712 CURVE SMOOTH",
"509 712 OFFCURVE",
"464 666 OFFCURVE",
"464 603 CURVE SMOOTH",
"464 491 OFFCURVE",
"481 424 OFFCURVE",
"481 305 CURVE SMOOTH",
"481 188 OFFCURVE",
"458 142 OFFCURVE",
"373 142 CURVE SMOOTH",
"270 142 OFFCURVE",
"207 225 OFFCURVE",
"194 436 CURVE SMOOTH",
"188 535 OFFCURVE",
"176 627 OFFCURVE",
"148 674 CURVE SMOOTH",
"130 705 OFFCURVE",
"100 716 OFFCURVE",
"73 716 CURVE SMOOTH",
"45 716 OFFCURVE",
"18 702 OFFCURVE",
"18 664 CURVE SMOOTH",
"18 597 OFFCURVE",
"47 590 OFFCURVE",
"59 399 CURVE SMOOTH",
"71 216 OFFCURVE",
"219 -13 OFFCURVE",
"393 -13 CURVE SMOOTH"
);
}
);
width = 685;
}
);
unicode = 0055;
},
{
glyphname = V;
lastChange = "2020-07-01 15:05:19 +0000";
layers = (
{
background = {
paths = (
{
closed = 0;
nodes = (
"40 663 LINE",
"182 556 OFFCURVE",
"191 240 OFFCURVE",
"348 63 CURVE",
"402 267 OFFCURVE",
"479 457 OFFCURVE",
"638 684 CURVE SMOOTH"
);
}
);
};
backgroundImage = {
crop = "{{0, 0}, {2004, 204}}";
imagePath = "Images/H_.glif-Regular.tif";
locked = "1";
transform = "{5.497, 0, 0, 5.497, -2636, -206}";
};
layerId = "DC44E50C-9AA1-421C-802C-D4D023281425";
paths = (
{
closed = 1;
nodes = (
"361 -29 OFFCURVE",
"384 -29 CURVE",
"406 -29 OFFCURVE",
"423 -22 OFFCURVE",
"431 10 CURVE",
"491 241 OFFCURVE",
"565 413 OFFCURVE",
"686 617 CURVE SMOOTH",
"692 627 OFFCURVE",
"698 641 OFFCURVE",
"698 654 CURVE SMOOTH",
"698 716 OFFCURVE",
"675 754 OFFCURVE",
"638 754 CURVE SMOOTH",
"612 754 OFFCURVE",
"599 744 OFFCURVE",
"556 683 CURVE SMOOTH",
"446 525 OFFCURVE",
"373 340 OFFCURVE",
"317 128 CURVE",
"351 147 LINE",
"275 296 OFFCURVE",
"241 557 OFFCURVE",
"145 653 CURVE SMOOTH",
"103 696 OFFCURVE",
"70 703 OFFCURVE",
"42 703 CURVE SMOOTH",
"9 703 OFFCURVE",
"-3 686 OFFCURVE",
"-3 654 CURVE SMOOTH",
"-3 623 OFFCURVE",
"8 598 OFFCURVE",
"54 540 CURVE SMOOTH",
"134 441 OFFCURVE",
"151 265 OFFCURVE",
"261 68 CURVE SMOOTH",
"311 -22 OFFCURVE"
);
}
);
width = 678;
}
);
unicode = 0056;
},
{
color = 3;
glyphname = W;
lastChange = "2020-07-03 03:35:27 +0000";
layers = (
{
layerId = "DC44E50C-9AA1-421C-802C-D4D023281425";
paths = (
{
closed = 1;
nodes = (
"724 156 LINE SMOOTH",
"755 168 OFFCURVE",
"772 186 OFFCURVE",
"777 219 CURVE SMOOTH",
"782 256 OFFCURVE",
"784 296 OFFCURVE",
"785 334 CURVE SMOOTH",
"789 435 OFFCURVE",
"795 475 OFFCURVE",
"809 504 CURVE SMOOTH",
"814 512 OFFCURVE",
"816 522 OFFCURVE",
"816 532 CURVE SMOOTH",
"816 565 OFFCURVE",
"789 592 OFFCURVE",
"756 592 CURVE SMOOTH",
"732 592 OFFCURVE",
"711 578 OFFCURVE",
"702 558 CURVE SMOOTH",
"671 496 OFFCURVE",
"668 410 OFFCURVE",
"665 338 CURVE SMOOTH",
"665 328 OFFCURVE",
"664 318 OFFCURVE",
"664 309 CURVE",
"626 352 OFFCURVE",
"600 399 OFFCURVE",
"576 442 CURVE SMOOTH",
"531 522 OFFCURVE",
"499 569 OFFCURVE",
"436 569 CURVE SMOOTH",
"355 569 OFFCURVE",
"283 464 OFFCURVE",
"238 332 CURVE",
"196 412 OFFCURVE",
"171 505 OFFCURVE",
"168 593 CURVE SMOOTH",
"167 625 OFFCURVE",
"141 651 OFFCURVE",
"108 651 CURVE SMOOTH",
"75 651 OFFCURVE",
"48 624 OFFCURVE",
"48 591 CURVE SMOOTH",
"48 590 OFFCURVE",
"48 590 OFFCURVE",
"48 589 CURVE SMOOTH",
"52 450 OFFCURVE",
"105 301 OFFCURVE",
"187 189 CURVE SMOOTH",
"207 161 OFFCURVE",
"233 154 OFFCURVE",
"266 163 CURVE SMOOTH",
"275 165 LINE SMOOTH",
"308 174 OFFCURVE",
"324 193 OFFCURVE",
"333 226 CURVE SMOOTH",
"360 326 OFFCURVE",
"411 432 OFFCURVE",
"432 447 CURVE",
"440 437 OFFCURVE",
"452 417 OFFCURVE",
"472 383 CURVE SMOOTH",
"505 323 OFFCURVE",
"553 237 OFFCURVE",
"639 167 CURVE SMOOTH",
"664 145 OFFCURVE",
"689 143 OFFCURVE",
"720 155 CURVE SMOOTH"
);
}
);
width = 870;
}
);
unicode = 0057;
},
{
color = 3;
glyphname = X;
lastChange = "2020-07-03 03:35:27 +0000";
layers = (
{
layerId = "DC44E50C-9AA1-421C-802C-D4D023281425";
paths = (
{
closed = 1;
nodes = (
"520 109 OFFCURVE",
"547 136 OFFCURVE",
"547 169 CURVE SMOOTH",
"547 182 OFFCURVE",
"543 194 OFFCURVE",
"536 204 CURVE SMOOTH",
"502 253 OFFCURVE",
"440 306 OFFCURVE",
"381 357 CURVE SMOOTH",
"294 432 OFFCURVE",
"210 505 OFFCURVE",
"181 574 CURVE SMOOTH",
"172 596 OFFCURVE",
"150 612 OFFCURVE",
"125 612 CURVE SMOOTH",
"92 612 OFFCURVE",
"65 585 OFFCURVE",
"65 552 CURVE SMOOTH",
"65 543 OFFCURVE",
"67 535 OFFCURVE",
"70 528 CURVE SMOOTH",
"110 433 OFFCURVE",
"216 341 OFFCURVE",
"303 266 CURVE SMOOTH",
"362 215 OFFCURVE",
"412 172 OFFCURVE",
"437 135 CURVE SMOOTH",
"448 119 OFFCURVE",
"466 109 OFFCURVE",
"487 109 CURVE SMOOTH"
);
},
{
closed = 1;
nodes = (
"257 71 OFFCURVE",
"280 89 OFFCURVE",
"287 113 CURVE SMOOTH",
"338 266 OFFCURVE",
"430 428 OFFCURVE",
"510 507 CURVE SMOOTH",
"521 518 OFFCURVE",
"528 533 OFFCURVE",
"528 550 CURVE SMOOTH",
"528 583 OFFCURVE",
"501 610 OFFCURVE",
"468 610 CURVE SMOOTH",
"452 610 OFFCURVE",
"437 603 OFFCURVE",
"426 593 CURVE SMOOTH",
"334 502 OFFCURVE",
"229 319 OFFCURVE",
"174 151 CURVE SMOOTH",
"171 145 OFFCURVE",
"170 138 OFFCURVE",
"170 131 CURVE SMOOTH",
"170 98 OFFCURVE",
"197 71 OFFCURVE",
"230 71 CURVE SMOOTH"
);
}
);
width = 600;
}
);
unicode = 0058;
},
{
color = 3;
glyphname = Y;
lastChange = "2020-07-03 03:35:27 +0000";
layers = (
{
layerId = "DC44E50C-9AA1-421C-802C-D4D023281425";
paths = (
{
closed = 1;
nodes = (
"405 -28 OFFCURVE",
"432 -1 OFFCURVE",
"432 32 CURVE SMOOTH",
"432 206 OFFCURVE",
"497 408 OFFCURVE",
"602 565 CURVE SMOOTH",
"609 575 OFFCURVE",
"613 586 OFFCURVE",
"613 599 CURVE SMOOTH",
"613 632 OFFCURVE",
"586 659 OFFCURVE",
"553 659 CURVE SMOOTH",
"532 659 OFFCURVE",
"513 648 OFFCURVE",
"503 632 CURVE SMOOTH",
"385 457 OFFCURVE",
"312 228 OFFCURVE",
"312 32 CURVE SMOOTH",
"312 -1 OFFCURVE",
"339 -28 OFFCURVE",
"372 -28 CURVE SMOOTH"
);
},
{
closed = 1;
nodes = (
"437 286 OFFCURVE",
"464 313 OFFCURVE",
"464 346 CURVE SMOOTH",
"464 363 OFFCURVE",
"457 378 OFFCURVE",
"446 389 CURVE SMOOTH",
"370 462 OFFCURVE",
"305 509 OFFCURVE",
"249 549 CURVE SMOOTH",
"196 587 OFFCURVE",
"153 618 OFFCURVE",
"110 664 CURVE SMOOTH",
"99 676 OFFCURVE",
"83 683 OFFCURVE",
"66 683 CURVE SMOOTH",
"33 683 OFFCURVE",
"6 656 OFFCURVE",
"6 623 CURVE SMOOTH",
"6 607 OFFCURVE",
"12 593 OFFCURVE",
"22 582 CURVE SMOOTH",
"73 527 OFFCURVE",
"126 490 OFFCURVE",
"180 451 CURVE SMOOTH",
"235 411 OFFCURVE",
"293 370 OFFCURVE",
"362 303 CURVE SMOOTH",
"373 292 OFFCURVE",
"388 286 OFFCURVE",
"404 286 CURVE SMOOTH"
);
}
);
width = 635;
}
);
unicode = 0059;
},
{
color = 3;
glyphname = Z;
lastChange = "2020-07-03 03:35:27 +0000";
layers = (
{
layerId = "DC44E50C-9AA1-421C-802C-D4D023281425";
paths = (
{
closed = 1;
nodes = (
"329 30 OFFCURVE",
"374 34 OFFCURVE",
"417 37 CURVE SMOOTH",
"463 41 OFFCURVE",
"507 44 OFFCURVE",
"552 44 CURVE SMOOTH",
"578 44 OFFCURVE",
"603 43 OFFCURVE",
"625 40 CURVE SMOOTH",
"628 40 OFFCURVE",
"630 40 OFFCURVE",
"633 40 CURVE SMOOTH",
"666 40 OFFCURVE",
"693 67 OFFCURVE",
"693 100 CURVE SMOOTH",
"693 131 OFFCURVE",
"669 157 OFFCURVE",
"639 160 CURVE SMOOTH",
"612 163 OFFCURVE",
"583 164 OFFCURVE",
"552 164 CURVE SMOOTH",
"502 164 OFFCURVE",
"453 160 OFFCURVE",
"408 157 CURVE SMOOTH",
"364 153 OFFCURVE",
"324 150 OFFCURVE",
"286 150 CURVE SMOOTH",
"273 150 OFFCURVE",
"266 148 OFFCURVE",
"263 146 CURVE",
"263 147 OFFCURVE",
"263 149 OFFCURVE",
"263 151 CURVE SMOOTH",
"263 178 OFFCURVE",
"285 218 OFFCURVE",
"356 313 CURVE SMOOTH",
"441 427 OFFCURVE",
"470 480 OFFCURVE",
"470 541 CURVE SMOOTH",
"470 638 OFFCURVE",
"395 681 OFFCURVE",
"268 681 CURVE SMOOTH",
"201 681 OFFCURVE",
"117 658 OFFCURVE",
"50 621 CURVE SMOOTH",
"31 611 OFFCURVE",
"18 591 OFFCURVE",
"18 568 CURVE SMOOTH",
"18 535 OFFCURVE",
"45 508 OFFCURVE",
"78 508 CURVE SMOOTH",
"89 508 OFFCURVE",
"99 511 OFFCURVE",
"108 516 CURVE SMOOTH",
"160 544 OFFCURVE",
"219 561 OFFCURVE",
"268 561 CURVE SMOOTH",
"341 561 OFFCURVE",
"350 552 OFFCURVE",
"350 541 CURVE SMOOTH",
"350 515 OFFCURVE",
"329 477 OFFCURVE",
"259 384 CURVE SMOOTH",
"173 268 OFFCURVE",
"143 213 OFFCURVE",
"143 151 CURVE SMOOTH",
"143 69 OFFCURVE",
"198 30 OFFCURVE",
"286 30 CURVE SMOOTH"
);
}
);
width = 711;
}
);
unicode = 005A;
},
{
glyphname = R.001;
layers = (
{
background = {
paths = (
{
closed = 0;
nodes = (
"118 516 LINE",
"219 330 OFFCURVE",
"83 207 OFFCURVE",
"142 -1 CURVE",
"34 199 OFFCURVE",
"303 680 OFFCURVE",
"575 680 CURVE SMOOTH",
"655 680 OFFCURVE",
"689 633 OFFCURVE",
"689 578 CURVE SMOOTH",
"689 499 OFFCURVE",
"580 345 OFFCURVE",
"278 243 CURVE",
"328 189 OFFCURVE",
"551 97 OFFCURVE",
"789 40 CURVE SMOOTH"
);
}
);
};
backgroundImage = {
crop = "{{0, 0}, {2004, 204}}";
imagePath = "Images/H_.glif-Regular.tif";
locked = "1";
transform = "{5.497, 0, 0, 5.497, -1730, -206}";
};
layerId = "DC44E50C-9AA1-421C-802C-D4D023281425";
paths = (
{
closed = 1;
nodes = (
"810 -14 OFFCURVE",
"849 14 OFFCURVE",
"849 55 CURVE SMOOTH",
"849 75 OFFCURVE",
"840 90 OFFCURVE",
"774 106 CURVE SMOOTH",
"648 136 OFFCURVE",
"483 194 OFFCURVE",
"360 257 CURVE",
"360 210 LINE",
"600 287 OFFCURVE",
"749 448 OFFCURVE",
"749 578 CURVE SMOOTH",
"749 676 OFFCURVE",
"673 740 OFFCURVE",
"590 740 CURVE SMOOTH",
"432 740 OFFCURVE",
"278 622 OFFCURVE",
"175 455 CURVE",
"202 466 LINE",
"189 521 OFFCURVE",
"167 560 OFFCURVE",
"126 560 CURVE SMOOTH",
"88 560 OFFCURVE",
"58 540 OFFCURVE",
"58 500 CURVE SMOOTH",
"58 457 OFFCURVE",
"88 423 OFFCURVE",
"99 318 CURVE",
"66 238 OFFCURVE",
"54 185 OFFCURVE",
"54 133 CURVE SMOOTH",
"54 37 OFFCURVE",
"91 -21 OFFCURVE",
"156 -23 CURVE SMOOTH",
"186 -22 OFFCURVE",
"199 -6 OFFCURVE",
"199 26 CURVE SMOOTH",
"199 66 OFFCURVE",
"202 178 OFFCURVE",
"199 256 CURVE",
"310 457 OFFCURVE",
"466 613 OFFCURVE",
"588 613 CURVE SMOOTH",
"618 613 OFFCURVE",
"629 602 OFFCURVE",
"629 584 CURVE SMOOTH",
"629 514 OFFCURVE",
"459 368 OFFCURVE",
"259 316 CURVE SMOOTH",
"217 305 OFFCURVE",
"178 293 OFFCURVE",
"175 256 CURVE SMOOTH",
"173 219 OFFCURVE",
"196 191 OFFCURVE",
"276 151 CURVE SMOOTH",
"500 38 OFFCURVE",
"688 -14 OFFCURVE",
"759 -14 CURVE SMOOTH"
);
}
);
width = 855;
}
);
},
{
glyphname = a;
lastChange = "2020-07-01 17:24:11 +0000";
layers = (
{
background = {
paths = (
{
closed = 0;
nodes = (
"340 462 LINE",
"267 461 OFFCURVE",
"95 334 OFFCURVE",
"95 153 CURVE SMOOTH",
"95 83 OFFCURVE",
"119 61 OFFCURVE",
"181 61 CURVE SMOOTH",
"281 61 OFFCURVE",
"401 190 OFFCURVE",
"432 418 CURVE",
"465 271 OFFCURVE",
"487 183 OFFCURVE",
"579 71 CURVE"
);
}
);
};
backgroundImage = {
crop = "{{0, 0}, {930, 210}}";
imagePath = "Images/h.001.glif-Regular.tif";
locked = "1";
transform = "{8.582, 0, 0, 8.582, -803, -603}";
};
layerId = "DC44E50C-9AA1-421C-802C-D4D023281425";
paths = (
{
closed = 1;
nodes = (
"375 423 OFFCURVE",
"395 440 OFFCURVE",
"416 440 CURVE SMOOTH",
"460 440 OFFCURVE",
"495 411 OFFCURVE",
"505 370 CURVE SMOOTH",
"530 262 OFFCURVE",
"554 196 OFFCURVE",
"625 109 CURVE SMOOTH",
"634 99 OFFCURVE",
"639 86 OFFCURVE",
"639 71 CURVE SMOOTH",
"639 44 OFFCURVE",
"604 3 OFFCURVE",
"574 3 CURVE SMOOTH",
"555 3 OFFCURVE",
"538 12 OFFCURVE",
"527 25 CURVE SMOOTH",
"472 93 OFFCURVE",
"441 159 OFFCURVE",
"412 243 CURVE",
"452 238 LINE",
"388 82 OFFCURVE",
"289 -19 OFFCURVE",
"181 -19 CURVE SMOOTH",
"93 -19 OFFCURVE",
"35 49 OFFCURVE",
"35 153 CURVE SMOOTH",
"35 325 OFFCURVE",
"177 522 OFFCURVE",
"337 522 CURVE SMOOTH",
"377 522 OFFCURVE",
"408 497 OFFCURVE",
"408 452 CURVE SMOOTH",
"408 433 OFFCURVE",
"396 421 OFFCURVE",
"382 416 CURVE SMOOTH",
"290 385 OFFCURVE",
"172 271 OFFCURVE",
"172 145 CURVE SMOOTH",
"172 125 OFFCURVE",
"173 112 OFFCURVE",
"182 92 CURVE",
"131 144 LINE",
"154 131 OFFCURVE",
"164 130 OFFCURVE",
"183 130 CURVE SMOOTH",
"257 130 OFFCURVE",
"342 247 OFFCURVE",
"370 399 CURVE SMOOTH"
);
}
);
width = 644;
}
);
unicode = 0061;
},
{
color = 3;
glyphname = b;
lastChange = "2020-07-03 03:35:56 +0000";
layers = (
{
layerId = "DC44E50C-9AA1-421C-802C-D4D023281425";
paths = (
{
closed = 1;
nodes = (
"375 -18 OFFCURVE",
"506 91 OFFCURVE",
"506 231 CURVE SMOOTH",
"506 343 OFFCURVE",
"444 418 OFFCURVE",
"344 418 CURVE SMOOTH",
"288 418 OFFCURVE",
"236 392 OFFCURVE",
"194 347 CURVE",
"194 360 OFFCURVE",
"194 373 OFFCURVE",
"194 386 CURVE SMOOTH",
"194 461 OFFCURVE",
"198 527 OFFCURVE",
"201 584 CURVE SMOOTH",
"203 626 OFFCURVE",
"206 663 OFFCURVE",
"206 693 CURVE SMOOTH",
"206 715 OFFCURVE",
"205 732 OFFCURVE",
"203 747 CURVE SMOOTH",
"199 776 OFFCURVE",
"174 799 OFFCURVE",
"143 799 CURVE SMOOTH",
"110 799 OFFCURVE",
"83 772 OFFCURVE",
"83 739 CURVE SMOOTH",
"83 736 OFFCURVE",
"83 733 OFFCURVE",
"84 729 CURVE SMOOTH",
"85 721 OFFCURVE",
"86 709 OFFCURVE",
"86 693 CURVE SMOOTH",
"86 666 OFFCURVE",
"84 632 OFFCURVE",
"81 591 CURVE SMOOTH",
"78 534 OFFCURVE",
"74 465 OFFCURVE",
"74 386 CURVE SMOOTH",
"74 282 OFFCURVE",
"81 182 OFFCURVE",
"96 87 CURVE",
"88 77 OFFCURVE",
"84 65 OFFCURVE",
"84 51 CURVE SMOOTH",
"84 23 OFFCURVE",
"104 -1 OFFCURVE",
"130 -7 CURVE SMOOTH",
"156 -14 OFFCURVE",
"185 -18 OFFCURVE",
"213 -18 CURVE SMOOTH"
);
},
{
closed = 1;
nodes = (
"232 216 OFFCURVE",
"289 298 OFFCURVE",
"344 298 CURVE SMOOTH",
"371 298 OFFCURVE",
"386 281 OFFCURVE",
"386 231 CURVE SMOOTH",
"386 161 OFFCURVE",
"312 104 OFFCURVE",
"216 102 CURVE"
);
}
);
width = 550;
}
);
unicode = 0062;
},
{
color = 3;
glyphname = c;
lastChange = "2020-07-03 03:35:56 +0000";
layers = (
{
layerId = "DC44E50C-9AA1-421C-802C-D4D023281425";
paths = (
{
closed = 1;
nodes = (
"336 14 OFFCURVE",
"410 37 OFFCURVE",
"449 69 CURVE SMOOTH",
"462 80 OFFCURVE",
"471 97 OFFCURVE",
"471 116 CURVE SMOOTH",
"471 149 OFFCURVE",
"444 176 OFFCURVE",
"411 176 CURVE SMOOTH",
"396 176 OFFCURVE",
"383 171 OFFCURVE",
"372 162 CURVE SMOOTH",
"355 147 OFFCURVE",
"309 134 OFFCURVE",
"274 134 CURVE SMOOTH",
"209 134 OFFCURVE",
"168 167 OFFCURVE",
"168 212 CURVE SMOOTH",
"168 265 OFFCURVE",
"212 315 OFFCURVE",
"260 321 CURVE",
"271 307 OFFCURVE",
"288 297 OFFCURVE",
"308 297 CURVE SMOOTH",
"341 297 OFFCURVE",
"368 324 OFFCURVE",
"368 357 CURVE SMOOTH",
"368 363 OFFCURVE",
"367 370 OFFCURVE",
"365 375 CURVE SMOOTH",
"352 419 OFFCURVE",
"317 442 OFFCURVE",
"270 442 CURVE SMOOTH",
"151 442 OFFCURVE",
"48 335 OFFCURVE",
"48 212 CURVE SMOOTH",
"48 98 OFFCURVE",
"145 14 OFFCURVE",
"274 14 CURVE SMOOTH"
);
}
);
width = 510;
}
);
unicode = 0063;
},
{
glyphname = d;
lastChange = "2020-07-01 15:30:07 +0000";
layers = (
{
background = {
paths = (
{
closed = 0;
nodes = (
"333 429 LINE",
"188 445 OFFCURVE",
"100 378 OFFCURVE",
"100 269 CURVE SMOOTH",
"100 145 OFFCURVE",
"197 51 OFFCURVE",
"293 51 CURVE SMOOTH",
"453 51 OFFCURVE",
"554 411 OFFCURVE",
"562 877 CURVE",
"549 607 OFFCURVE",
"522 456 OFFCURVE",
"521 281 CURVE SMOOTH",
"520 176 OFFCURVE",
"546 90 OFFCURVE",
"609 57 CURVE SMOOTH"
);
}
);
};
backgroundImage = {
crop = "{{0, 0}, {930, 210}}";
imagePath = "Images/h.001.glif-Regular.tif";
locked = "1";
transform = "{8.582, 0, 0, 8.582, -7158, -607}";
};
layerId = "DC44E50C-9AA1-421C-802C-D4D023281425";
paths = (
{
closed = 1;
nodes = (
"376 -9 OFFCURVE",
"455 44 OFFCURVE",
"511 220 CURVE",
"473 235 LINE",
"463 105 OFFCURVE",
"521 -14 OFFCURVE",
"597 -14 CURVE SMOOTH",
"641 -14 OFFCURVE",
"676 18 OFFCURVE",
"676 49 CURVE SMOOTH",
"676 126 OFFCURVE",
"592 119 OFFCURVE",
"592 335 CURVE SMOOTH",
"592 473 OFFCURVE",
"622 534 OFFCURVE",
"627 680 CURVE SMOOTH",
"630 772 OFFCURVE",
"597 817 OFFCURVE",
"542 817 CURVE SMOOTH",
"517 817 OFFCURVE",
"498 803 OFFCURVE",
"498 756 CURVE SMOOTH",
"498 359 OFFCURVE",
"405 138 OFFCURVE",
"281 138 CURVE SMOOTH",
"224 138 OFFCURVE",
"160 200 OFFCURVE",
"160 269 CURVE SMOOTH",
"160 322 OFFCURVE",
"217 354 OFFCURVE",
"325 353 CURVE SMOOTH",
"376 353 OFFCURVE",
"408 339 OFFCURVE",
"443 339 CURVE SMOOTH",
"456 339 OFFCURVE",
"473 362 OFFCURVE",
"473 391 CURVE SMOOTH",
"473 449 OFFCURVE",
"403 491 OFFCURVE",
"292 491 CURVE SMOOTH",
"141 492 OFFCURVE",
"40 403 OFFCURVE",
"40 269 CURVE SMOOTH",
"40 120 OFFCURVE",
"157 -9 OFFCURVE",
"293 -9 CURVE SMOOTH"
);
}
);
width = 691;
}
);
unicode = 0064;
},
{
glyphname = e;
lastChange = "2020-07-01 17:25:17 +0000";
layers = (
{
background = {
paths = (
{
closed = 0;
nodes = (
"142 230 LINE",
"257 222 OFFCURVE",
"414 285 OFFCURVE",
"414 373 CURVE SMOOTH",
"414 441 OFFCURVE",
"384 474 OFFCURVE",
"313 474 CURVE SMOOTH",
"205 474 OFFCURVE",
"95 331 OFFCURVE",
"95 188 CURVE SMOOTH",
"95 93 OFFCURVE",
"161 38 OFFCURVE",
"245 38 CURVE SMOOTH",
"313 38 OFFCURVE",
"394 47 OFFCURVE",
"489 81 CURVE SMOOTH"
);
}
);
};
backgroundImage = {
crop = "{{0, 0}, {930, 210}}";
imagePath = "Images/h.001.glif-Regular.tif";
locked = "1";
transform = "{8.582, 0, 0, 8.582, -2521, -603}";
};
layerId = "DC44E50C-9AA1-421C-802C-D4D023281425";
paths = (
{
closed = 1;
nodes = (
"364 170 OFFCURVE",
"474 238 OFFCURVE",
"474 373 CURVE SMOOTH",
"474 457 OFFCURVE",
"404 534 OFFCURVE",
"304 534 CURVE SMOOTH",
"144 534 OFFCURVE",
"41 350 OFFCURVE",
"41 210 CURVE SMOOTH",
"41 86 OFFCURVE",
"142 -22 OFFCURVE",
"265 -22 CURVE SMOOTH",
"401 -22 OFFCURVE",
"557 24 OFFCURVE",
"557 100 CURVE SMOOTH",
"557 116 OFFCURVE",
"546 131 OFFCURVE",
"519 131 CURVE SMOOTH",
"469 131 OFFCURVE",
"400 98 OFFCURVE",
"245 98 CURVE SMOOTH",
"173 98 OFFCURVE",
"159 120 OFFCURVE",
"159 187 CURVE SMOOTH",
"159 305 OFFCURVE",
"241 414 OFFCURVE",
"322 414 CURVE SMOOTH",
"344 414 OFFCURVE",
"354 403 OFFCURVE",
"354 387 CURVE SMOOTH",
"354 339 OFFCURVE",
"281 288 OFFCURVE",
"172 288 CURVE SMOOTH",
"128 288 OFFCURVE",
"113 270 OFFCURVE",
"113 238 CURVE SMOOTH",
"113 207 OFFCURVE",
"140 170 OFFCURVE",
"218 170 CURVE SMOOTH"
);
}
);
width = 564;
}
);
unicode = 0065;
},
{
glyphname = f;
lastChange = "2020-07-01 15:27:05 +0000";
layers = (
{
background = {
paths = (
{
closed = 0;
nodes = (
"213 791 LINE",
"125 719 OFFCURVE",
"96 615 OFFCURVE",
"96 474 CURVE SMOOTH",
"96 270 OFFCURVE",
"210 77 OFFCURVE",
"219 -196 CURVE SMOOTH"
);
},
{
closed = 0;
nodes = (
"443 445 LINE",
"332 433 OFFCURVE",
"229 394 OFFCURVE",
"141 347 CURVE SMOOTH"
);
}
);
};
backgroundImage = {
crop = "{{0, 0}, {930, 210}}";
imagePath = "Images/h.001.glif-Regular.tif";
locked = "1";
transform = "{8.582, 0, 0, 8.582, -4232, -643}";
};
layerId = "DC44E50C-9AA1-421C-802C-D4D023281425";
paths = (
{
closed = 1;
nodes = (
"230 -240 OFFCURVE",
"245 -225 OFFCURVE",
"245 -189 CURVE SMOOTH",
"245 118 OFFCURVE",
"178 277 OFFCURVE",
"178 443 CURVE SMOOTH",
"178 539 OFFCURVE",
"218 662 OFFCURVE",
"324 729 CURVE SMOOTH",
"339 739 OFFCURVE",
"348 750 OFFCURVE",
"348 767 CURVE SMOOTH",
"348 821 OFFCURVE",
"298 851 OFFCURVE",
"258 851 CURVE SMOOTH",
"242 851 OFFCURVE",
"231 849 OFFCURVE",
"212 837 CURVE SMOOTH",
"94 763 OFFCURVE",
"50 573 OFFCURVE",
"50 459 CURVE SMOOTH",
"50 172 OFFCURVE",
"112 161 OFFCURVE",
"112 -118 CURVE SMOOTH",
"112 -196 OFFCURVE",
"155 -240 OFFCURVE",
"198 -240 CURVE SMOOTH"
);
},
{
closed = 1;
nodes = (
"238 380 OFFCURVE",
"300 401 OFFCURVE",
"369 408 CURVE SMOOTH",
"394 410 OFFCURVE",
"405 423 OFFCURVE",
"405 445 CURVE SMOOTH",
"405 484 OFFCURVE",
"375 510 OFFCURVE",
"312 510 CURVE SMOOTH",
"275 510 OFFCURVE",
"199 494 OFFCURVE",
"143 476 CURVE SMOOTH",
"105 463 OFFCURVE",
"89 423 OFFCURVE",
"89 389 CURVE SMOOTH",
"89 358 OFFCURVE",
"113 330 OFFCURVE",
"141 330 CURVE SMOOTH",
"152 330 OFFCURVE",
"164 334 OFFCURVE",
"175 341 CURVE SMOOTH"
);
}
);
width = 434;
},
{
associatedMasterId = "DC44E50C-9AA1-421C-802C-D4D023281425";
background = {
paths = (
{
closed = 0;
nodes = (
"219 791 LINE",
"131 719 OFFCURVE",
"102 615 OFFCURVE",
"102 474 CURVE SMOOTH",
"102 270 OFFCURVE",
"216 77 OFFCURVE",
"225 -196 CURVE SMOOTH"
);
},
{
closed = 0;
nodes = (
"449 445 LINE",
"338 433 OFFCURVE",
"235 394 OFFCURVE",
"147 347 CURVE SMOOTH"
);
}
);
};
backgroundImage = {
crop = "{{0, 0}, {930, 210}}";
imagePath = "Images/h.001.glif-Regular.tif";
locked = "1";
transform = "{8.582, 0, 0, 8.582, -4226, -643}";
};
layerId = "074BB056-315E-496B-8952-8B259DC00279";
name = "Jun 30 20, 16:45";
paths = (
{
closed = 1;
nodes = (
"285 93 OFFCURVE",
"169 295 OFFCURVE",
"169 482 CURVE SMOOTH",
"169 619 OFFCURVE",
"190.343 689.845 OFFCURVE",
"256.666 744.294 CURVE SMOOTH",
"270.288 755.292 OFFCURVE",
"279 772.129 OFFCURVE",
"279 800 CURVE SMOOTH",
"279 828 OFFCURVE",
"265 851 OFFCURVE",
"225 851 CURVE SMOOTH",
"204.365 851 OFFCURVE",
"190.955 845.76 OFFCURVE",
"168 827 CURVE SMOOTH",
"84.864 758.519 OFFCURVE",
"42 644.594 OFFCURVE",
"42 474 CURVE SMOOTH",
"42 368.07 OFFCURVE",
"70.365 264.959 OFFCURVE",
"98.646 162.155 CURVE SMOOTH",
"129.323 50.644 OFFCURVE",
"160.547 -62.862 OFFCURVE",
"165.025 -197.753 CURVE SMOOTH",
"165.953 -230.079 OFFCURVE",
"192.449 -256 OFFCURVE",
"225 -256 CURVE SMOOTH",
"258.137 -256 OFFCURVE",
"285 -229.137 OFFCURVE",
"285 -196 CURVE SMOOTH",
"285 -195.198 OFFCURVE",
"285 -194 OFFCURVE",
"284.953 -193.605 CURVE SMOOTH"
);
},
{
closed = 1;
nodes = (
"243 331 OFFCURVE",
"314 355 OFFCURVE",
"375 361 CURVE SMOOTH",
"419 365 OFFCURVE",
"439 384 OFFCURVE",
"439 418 CURVE SMOOTH",
"439 449 OFFCURVE",
"419 470 OFFCURVE",
"376 470 CURVE SMOOTH",
"333 470 OFFCURVE",
"221 451 OFFCURVE",
"149 416 CURVE SMOOTH",
"112 397 OFFCURVE",
"93 373 OFFCURVE",
"93 339 CURVE SMOOTH",
"93 296 OFFCURVE",
"138 275 OFFCURVE",
"179 297 CURVE SMOOTH"
);
}
);
width = 470;
}
);
unicode = 0066;
},
{
glyphname = g;
lastChange = "2020-07-01 14:33:55 +0000";
layers = (
{
background = {
paths = (
{
closed = 0;
nodes = (
"390 400 LINE",
"362 444 OFFCURVE",
"328 464 OFFCURVE",
"282 464 CURVE SMOOTH",
"180 464 OFFCURVE",
"99 371 OFFCURVE",
"99 285 CURVE SMOOTH",
"99 213 OFFCURVE",
"153 163 OFFCURVE",
"266 163 CURVE SMOOTH",
"392 163 OFFCURVE",
"506 252 OFFCURVE",
"477 431 CURVE",
"477 267 OFFCURVE",
"549 105 OFFCURVE",
"549 -217 CURVE SMOOTH",
"549 -321 OFFCURVE",
"516 -375 OFFCURVE",
"429 -375 CURVE SMOOTH",
"280 -375 OFFCURVE",
"130 -245 OFFCURVE",
"139 -139 CURVE SMOOTH"
);
}
);
};
backgroundImage = {
crop = "{{0, 0}, {930, 210}}";
imagePath = "Images/h.001.glif-Regular.tif";
locked = "1";
transform = "{8.582, 0, 0, 8.582, -5570, -607}";
};
layerId = "DC44E50C-9AA1-421C-802C-D4D023281425";
paths = (
{
closed = 1;
nodes = (
"506 463 OFFCURVE",
"540 428 OFFCURVE",
"543 390 CURVE SMOOTH",
"557 221 OFFCURVE",
"609 139 OFFCURVE",
"609 -63 CURVE SMOOTH",
"609 -188 OFFCURVE",
"540 -264 OFFCURVE",
"419 -264 CURVE SMOOTH",
"184 -264 OFFCURVE",
"89 -144 OFFCURVE",
"89 -60 CURVE SMOOTH",
"89 -6 OFFCURVE",
"127 41 OFFCURVE",
"167 41 CURVE SMOOTH",
"189 41 OFFCURVE",
"197 30 OFFCURVE",
"197 9 CURVE SMOOTH",
"197 -64 OFFCURVE",
"305 -135 OFFCURVE",
"417 -135 CURVE SMOOTH",
"476 -135 OFFCURVE",
"497 -107 OFFCURVE",
"497 -56 CURVE SMOOTH",
"497 79 OFFCURVE",
"458 145 OFFCURVE",
"449 237 CURVE",
"498 230 LINE",
"458 135 OFFCURVE",
"351 103 OFFCURVE",
"266 103 CURVE SMOOTH",
"127 103 OFFCURVE",
"39 173 OFFCURVE",
"39 285 CURVE SMOOTH",
"39 411 OFFCURVE",
"154 524 OFFCURVE",
"282 524 CURVE SMOOTH",
"369 524 OFFCURVE",
"437 464 OFFCURVE",
"437 407 CURVE SMOOTH",
"437 390 OFFCURVE",
"422 363 OFFCURVE",
"403 363 CURVE SMOOTH",
"368 363 OFFCURVE",
"362 390 OFFCURVE",
"318 390 CURVE SMOOTH",
"241 390 OFFCURVE",
"166 334 OFFCURVE",
"166 279 CURVE SMOOTH",
"166 243 OFFCURVE",
"196 223 OFFCURVE",
"266 223 CURVE SMOOTH",
"365 223 OFFCURVE",
"431 275 OFFCURVE",
"431 424 CURVE SMOOTH",
"430 451 OFFCURVE",
"439 463 OFFCURVE",
"464 463 CURVE SMOOTH"
);
}
);
width = 630;
},
{
associatedMasterId = "DC44E50C-9AA1-421C-802C-D4D023281425";
background = {
paths = (
{
closed = 0;
nodes = (
"391 400 LINE",
"363 444 OFFCURVE",
"329 464 OFFCURVE",
"283 464 CURVE SMOOTH",
"181 464 OFFCURVE",
"100 371 OFFCURVE",
"100 285 CURVE SMOOTH",
"100 213 OFFCURVE",
"154 163 OFFCURVE",
"267 163 CURVE SMOOTH",
"393 163 OFFCURVE",
"507 252 OFFCURVE",
"478 431 CURVE",
"478 267 OFFCURVE",
"550 105 OFFCURVE",
"550 -217 CURVE SMOOTH",
"550 -321 OFFCURVE",
"517 -375 OFFCURVE",
"430 -375 CURVE SMOOTH",
"281 -375 OFFCURVE",
"131 -245 OFFCURVE",
"140 -139 CURVE SMOOTH"
);
}
);
};
backgroundImage = {
crop = "{{0, 0}, {930, 210}}";
imagePath = "Images/h.001.glif-Regular.tif";
locked = "1";
transform = "{8.582, 0, 0, 8.582, -5569, -607}";
};
layerId = "4C5F36B2-0146-4542-8D1F-CBF697C1CC67";
name = "long descender";
paths = (
{
closed = 1;
nodes = (
"517 469 OFFCURVE",
"536 446 OFFCURVE",
"542 391 CURVE SMOOTH",
"546 350 OFFCURVE",
"555 277 OFFCURVE",
"564 226 CURVE SMOOTH",
"584 115 OFFCURVE",
"610 -24 OFFCURVE",
"610 -217 CURVE SMOOTH",
"610 -359 OFFCURVE",
"548 -435 OFFCURVE",
"430 -435 CURVE SMOOTH",
"250 -435 OFFCURVE",
"68 -281 OFFCURVE",
"80 -135 CURVE SMOOTH",
"82 -104 OFFCURVE",
"108 -79 OFFCURVE",
"140 -79 CURVE SMOOTH",
"173 -79 OFFCURVE",
"200 -106 OFFCURVE",
"200 -139 CURVE SMOOTH",
"200 -236 OFFCURVE",
"313 -315 OFFCURVE",
"430 -315 CURVE SMOOTH",
"475 -315 OFFCURVE",
"490 -297 OFFCURVE",
"490 -217 CURVE SMOOTH",
"490 -41 OFFCURVE",
"468 83 OFFCURVE",
"441 236 CURVE",
"484 246 LINE",
"459 135 OFFCURVE",
"352 103 OFFCURVE",
"267 103 CURVE SMOOTH",
"128 103 OFFCURVE",
"40 173 OFFCURVE",
"40 285 CURVE SMOOTH",
"40 411 OFFCURVE",
"155 524 OFFCURVE",
"283 524 CURVE SMOOTH",
"376 524 OFFCURVE",
"438 468 OFFCURVE",
"438 398 CURVE SMOOTH",
"438 379 OFFCURVE",
"421 356 OFFCURVE",
"391 356 CURVE SMOOTH",
"346 356 OFFCURVE",
"339 404 OFFCURVE",
"283 404 CURVE SMOOTH",
"220.695 404 OFFCURVE",
"160 344.378 OFFCURVE",
"160 285 CURVE SMOOTH",
"160 245.251 OFFCURVE",
"192.195 223 OFFCURVE",
"267 223 CURVE SMOOTH",
"366 223 OFFCURVE",
"432 269 OFFCURVE",
"432 400 CURVE SMOOTH",
"431 445 OFFCURVE",
"443 465 OFFCURVE",
"478 466 CURVE SMOOTH"
);
}
);
width = 637;
}
);
unicode = 0067;
},
{
glyphname = h;
lastChange = "2020-07-01 15:30:29 +0000";
layers = (
{
background = {
paths = (
{
closed = 0;
nodes = (
"156 874 LINE",
"189 616 OFFCURVE",
"107 457 OFFCURVE",
"125 19 CURVE",
"243 309 OFFCURVE",
"374 472 OFFCURVE",
"472 472 CURVE SMOOTH",
"589 472 OFFCURVE",
"524 131 OFFCURVE",
"621 9 CURVE SMOOTH"
);
}
);
};
backgroundImage = {
crop = "{{0, 0}, {930, 210}}";
imagePath = "Images/h.001.glif-Regular.tif";
locked = "1";
transform = "{8.58244, 0, 0, 8.58244, -77, -603}";
};
layerId = "DC44E50C-9AA1-421C-802C-D4D023281425";
paths = (
{
closed = 1;
nodes = (
"662 -36 OFFCURVE",
"681 -16 OFFCURVE",
"681 9 CURVE SMOOTH",
"681 23 OFFCURVE",
"676 36 OFFCURVE",
"668 47 CURVE SMOOTH",
"643 78 OFFCURVE",
"629 129 OFFCURVE",
"616 268 CURVE SMOOTH",
"601 433 OFFCURVE",
"576 532 OFFCURVE",
"472 532 CURVE SMOOTH",
"371 532 OFFCURVE",
"265 425 OFFCURVE",
"165 234 CURVE",
"180 235 LINE",
"183 371 OFFCURVE",
"230 520 OFFCURVE",
"230 639 CURVE SMOOTH",
"230 780 OFFCURVE",
"187 824 OFFCURVE",
"141 824 CURVE SMOOTH",
"108 824 OFFCURVE",
"96 806 OFFCURVE",
"96 787 CURVE SMOOTH",
"96 746 OFFCURVE",
"104 695 OFFCURVE",
"104 639 CURVE SMOOTH",
"104 507 OFFCURVE",
"68 345 OFFCURVE",
"68 106 CURVE SMOOTH",
"68 31 OFFCURVE",
"103 -19 OFFCURVE",
"146 -19 CURVE SMOOTH",
"167 -19 OFFCURVE",
"183 -9 OFFCURVE",
"195 19 CURVE SMOOTH",
"296 248 OFFCURVE",
"416 394 OFFCURVE",
"475 394 CURVE",
"492 360 OFFCURVE",
"500 318 OFFCURVE",
"506 235 CURVE SMOOTH",
"514 121 OFFCURVE",
"566 -36 OFFCURVE",
"638 -36 CURVE SMOOTH"
);
}
);
width = 716;
},
{
associatedMasterId = "DC44E50C-9AA1-421C-802C-D4D023281425";
background = {
paths = (
{
closed = 0;
nodes = (
"130 874 LINE",
"163 616 OFFCURVE",
"81 457 OFFCURVE",
"99 19 CURVE",
"217 309 OFFCURVE",
"348 472 OFFCURVE",
"446 472 CURVE SMOOTH",
"563 472 OFFCURVE",
"498 131 OFFCURVE",
"595 9 CURVE SMOOTH"
);
}
);
};
backgroundImage = {
crop = "{{0, 0}, {930, 210}}";
imagePath = "Images/h.001.glif-Regular.tif";
locked = "1";
transform = "{8.58244, 0, 0, 8.58244, -103, -603}";
};
layerId = "CFF9C875-3851-4914-A10B-DF35202C147B";
name = "Jun 30 20, 21:20";
paths = (
{
closed = 1;
nodes = (
"628.137 -51 OFFCURVE",
"655 -24.137 OFFCURVE",
"655 9 CURVE SMOOTH",
"655 23.227 OFFCURVE",
"650.048 36.298 OFFCURVE",
"641.774 46.582 CURVE SMOOTH",
"616.855 78.116 OFFCURVE",
"603.909 132.38 OFFCURVE",
"590.212 267.69 CURVE SMOOTH",
"573.506 432.715 OFFCURVE",
"550.019 532 OFFCURVE",
"446 532 CURVE SMOOTH",
"352.432 532 OFFCURVE",
"253.938 442.929 OFFCURVE",
"159.965 282.748 CURVE",
"165 371 OFFCURVE",
"173 445 OFFCURVE",
"181 515 CURVE SMOOTH",
"190 595 OFFCURVE",
"198 670 OFFCURVE",
"197.916 748.635 CURVE SMOOTH",
"197.916 793.576 OFFCURVE",
"195.198 836.898 OFFCURVE",
"189.623 880.76 CURVE SMOOTH",
"186.265 910.714 OFFCURVE",
"160.852 934 OFFCURVE",
"130 934 CURVE SMOOTH",
"96.863 934 OFFCURVE",
"70 907.137 OFFCURVE",
"70 874 CURVE SMOOTH",
"70 871.115 OFFCURVE",
"70.204 868.278 OFFCURVE",
"70.598 865.502 CURVE SMOOTH",
"75.515 826.759 OFFCURVE",
"77.916 788.435 OFFCURVE",
"77.916 748.635 CURVE SMOOTH",
"77.916 676.842 OFFCURVE",
"70.298 608.545 OFFCURVE",
"61.329 528.132 CURVE SMOOTH",
"49.846 425.184 OFFCURVE",
"36.385 304.495 OFFCURVE",
"36.385 143.515 CURVE SMOOTH",
"36.385 119.643 OFFCURVE",
"36.676 95.506 OFFCURVE",
"37.27 70.928 CURVE SMOOTH",
"38.151 34.491 OFFCURVE",
"56.737 13.451 OFFCURVE",
"92.601 7.196 CURVE SMOOTH",
"101.486 5.646 LINE SMOOTH",
"137.13 -0.57 OFFCURVE",
"161.24 13.135 OFFCURVE",
"176.28 47.762 CURVE SMOOTH",
"273.365 269.127 OFFCURVE",
"383.695 412 OFFCURVE",
"446 412 CURVE SMOOTH",
"446.33 412 OFFCURVE",
"461.76 345.126 OFFCURVE",
"470.822 255.604 CURVE SMOOTH",
"480.336 161.623 OFFCURVE",
"492.43 42.149 OFFCURVE",
"547.597 -27.787 CURVE SMOOTH",
"558.574 -41.912 OFFCURVE",
"575.726 -51 OFFCURVE",
"595 -51 CURVE SMOOTH"
);
}
);
width = 690;
}
);
unicode = 0068;
},
{
glyphname = i;
lastChange = "2020-07-01 14:39:16 +0000";
layers = (
{
background = {
paths = (
{
closed = 0;
nodes = (
"137 466 LINE",
"139 328 OFFCURVE",
"143 213 OFFCURVE",
"142 53 CURVE"
);
},
{
closed = 0;
nodes = (
"123 766 LINE",
"130 757 OFFCURVE",
"136 730 OFFCURVE",
"156 712 CURVE SMOOTH"
);
}
);
};
backgroundImage = {
crop = "{{0, 0}, {930, 210}}";
imagePath = "Images/h.001.glif-Regular.tif";
locked = "1";
transform = "{8.582, 0, 0, 8.582, -6852, -607}";
};
layerId = "DC44E50C-9AA1-421C-802C-D4D023281425";
paths = (
{
closed = 1;
nodes = (
"187 -7 OFFCURVE",
"202 12 OFFCURVE",
"202 43 CURVE SMOOTH",
"202 122 OFFCURVE",
"217 372 OFFCURVE",
"216 445 CURVE SMOOTH",
"215 498 OFFCURVE",
"184 526 OFFCURVE",
"147 526 CURVE SMOOTH",
"107 526 OFFCURVE",
"69 485 OFFCURVE",
"69 436 CURVE SMOOTH",
"69 336 OFFCURVE",
"79 277 OFFCURVE",
"79 79 CURVE SMOOTH",
"79 34 OFFCURVE",
"114 -7 OFFCURVE",
"158 -7 CURVE SMOOTH"
);
},
{
closed = 1;
nodes = (
"208 645 OFFCURVE",
"225 668 OFFCURVE",
"225 688 CURVE",
"225 754 OFFCURVE",
"186 836 OFFCURVE",
"121 836 CURVE",
"84 836 OFFCURVE",
"54 806 OFFCURVE",
"54 766 CURVE",
"54 704 OFFCURVE",
"104 645 OFFCURVE",
"163 645 CURVE"
);
}
);
width = 294;
}
);
unicode = 0069;
},
{
color = 3;
glyphname = j;
lastChange = "2020-07-03 03:35:56 +0000";
layers = (
{
layerId = "DC44E50C-9AA1-421C-802C-D4D023281425";
paths = (
{
closed = 1;
nodes = (
"207 -247 OFFCURVE",
"278 -152 OFFCURVE",
"278 9 CURVE",
"278 135 OFFCURVE",
"262 262 OFFCURVE",
"209 407 CURVE",
"202 428 OFFCURVE",
"177 440 OFFCURVE",
"148 440 CURVE",
"121 440 OFFCURVE",
"88 414 OFFCURVE",
"89 381 CURVE",
"89 370 OFFCURVE",
"89 361 OFFCURVE",
"92 352 CURVE",
"139 223 OFFCURVE",
"158 117 OFFCURVE",
"158 9 CURVE",
"158 -84 OFFCURVE",
"136 -127 OFFCURVE",
"87 -127 CURVE",
"56 -127 OFFCURVE",
"40 -123 OFFCURVE",
"14 -110 CURVE",
"6 -105 OFFCURVE",
"-4 -102 OFFCURVE",
"-15 -102 CURVE",
"-48 -102 OFFCURVE",
"-75 -129 OFFCURVE",
"-75 -162 CURVE",
"-75 -185 OFFCURVE",
"-62 -206 OFFCURVE",
"-42 -216 CURVE",
"0 -238 OFFCURVE",
"37 -247 OFFCURVE",
"87 -247 CURVE"
);
},
{
closed = 1;
nodes = (
"193 612 OFFCURVE",
"220 639 OFFCURVE",
"220 672 CURVE SMOOTH",
"220 686 OFFCURVE",
"216 711 OFFCURVE",
"209 737 CURVE",
"208 744 OFFCURVE",
"206 750 OFFCURVE",
"205 756 CURVE SMOOTH",
"200 784 OFFCURVE",
"175 805 OFFCURVE",
"146 805 CURVE SMOOTH",
"113 805 OFFCURVE",
"86 778 OFFCURVE",
"86 745 CURVE SMOOTH",
"86 740 OFFCURVE",
"87 736 OFFCURVE",
"88 731 CURVE SMOOTH",
"89 724 OFFCURVE",
"91 717 OFFCURVE",
"93 710 CURVE SMOOTH",
"98 685 OFFCURVE",
"100 676 OFFCURVE",
"100 672 CURVE SMOOTH",
"100 639 OFFCURVE",
"127 612 OFFCURVE",
"160 612 CURVE SMOOTH"
);
}
);
width = 420;
}
);
unicode = 006A;
},
{
color = 3;
glyphname = k;
lastChange = "2020-07-03 03:35:56 +0000";
layers = (
{
layerId = "DC44E50C-9AA1-421C-802C-D4D023281425";
paths = (
{
closed = 1;
nodes = (
"186 -38 OFFCURVE",
"213 -11 OFFCURVE",
"213 22 CURVE SMOOTH",
"213 25 OFFCURVE",
"213 28 OFFCURVE",
"212 32 CURVE SMOOTH",
"201 108 OFFCURVE",
"201 204 OFFCURVE",
"200 310 CURVE SMOOTH",
"199 457 OFFCURVE",
"198 623 OFFCURVE",
"166 767 CURVE SMOOTH",
"160 794 OFFCURVE",
"136 815 OFFCURVE",
"107 815 CURVE SMOOTH",
"74 815 OFFCURVE",
"47 788 OFFCURVE",
"47 755 CURVE SMOOTH",
"47 750 OFFCURVE",
"48 745 OFFCURVE",
"49 741 CURVE SMOOTH",
"78 610 OFFCURVE",
"79 456 OFFCURVE",
"80 309 CURVE SMOOTH",
"81 203 OFFCURVE",
"81 99 OFFCURVE",
"93 14 CURVE SMOOTH",
"97 -15 OFFCURVE",
"122 -38 OFFCURVE",
"153 -38 CURVE SMOOTH"
);
},
{
closed = 1;
nodes = (
"533 -7 OFFCURVE",
"560 20 OFFCURVE",
"560 53 CURVE SMOOTH",
"560 81 OFFCURVE",
"540 105 OFFCURVE",
"514 111 CURVE SMOOTH",
"404 141 OFFCURVE",
"287 209 OFFCURVE",
"287 229 CURVE SMOOTH",
"287 273 OFFCURVE",
"426 389 OFFCURVE",
"506 406 CURVE SMOOTH",
"534 411 OFFCURVE",
"555 436 OFFCURVE",
"555 465 CURVE SMOOTH",
"555 498 OFFCURVE",
"528 525 OFFCURVE",
"495 525 CURVE SMOOTH",
"490 525 OFFCURVE",
"486 524 OFFCURVE",
"482 523 CURVE SMOOTH",
"340 494 OFFCURVE",
"167 335 OFFCURVE",
"167 229 CURVE SMOOTH",
"167 130 OFFCURVE",
"314 40 OFFCURVE",
"483 -5 CURVE SMOOTH",
"489 -6 OFFCURVE",
"494 -7 OFFCURVE",
"500 -7 CURVE SMOOTH"
);
}
);
width = 600;
}
);
unicode = 006B;
},
{
color = 3;
glyphname = l;
lastChange = "2020-07-03 03:35:56 +0000";
layers = (
{
layerId = "DC44E50C-9AA1-421C-802C-D4D023281425";
paths = (
{
closed = 1;
nodes = (
"253 -11 OFFCURVE",
"304 11 OFFCURVE",
"349 55 CURVE SMOOTH",
"360 66 OFFCURVE",
"367 81 OFFCURVE",
"367 98 CURVE SMOOTH",
"367 131 OFFCURVE",
"340 158 OFFCURVE",
"307 158 CURVE SMOOTH",
"291 158 OFFCURVE",
"276 152 OFFCURVE",
"265 141 CURVE SMOOTH",
"241 118 OFFCURVE",
"222 109 OFFCURVE",
"198 109 CURVE SMOOTH",
"195 109 OFFCURVE",
"164 288 OFFCURVE",
"164 417 CURVE SMOOTH",
"164 530 OFFCURVE",
"174 616 OFFCURVE",
"186 730 CURVE SMOOTH",
"186 732 OFFCURVE",
"186 735 OFFCURVE",
"186 737 CURVE SMOOTH",
"186 770 OFFCURVE",
"159 797 OFFCURVE",
"126 797 CURVE SMOOTH",
"95 797 OFFCURVE",
"69 773 OFFCURVE",
"66 743 CURVE SMOOTH",
"54 629 OFFCURVE",
"44 537 OFFCURVE",
"44 417 CURVE SMOOTH",
"44 183 OFFCURVE",
"81 -11 OFFCURVE",
"198 -11 CURVE SMOOTH"
);
}
);
width = 410;
}
);
unicode = 006C;
},
{
color = 3;
glyphname = m;
lastChange = "2020-07-03 03:35:56 +0000";
layers = (
{
layerId = "DC44E50C-9AA1-421C-802C-D4D023281425";
paths = (
{
closed = 1;
nodes = (
"841 9 OFFCURVE",
"868 36 OFFCURVE",
"868 69 CURVE SMOOTH",
"868 85 OFFCURVE",
"862 99 OFFCURVE",
"852 110 CURVE SMOOTH",
"818 147 OFFCURVE",
"801 201 OFFCURVE",
"784 259 CURVE SMOOTH",
"755 355 OFFCURVE",
"728 415 OFFCURVE",
"654 415 CURVE SMOOTH",
"589 415 OFFCURVE",
"502 322 OFFCURVE",
"444 222 CURVE",
"440 230 OFFCURVE",
"436 239 OFFCURVE",
"431 249 CURVE SMOOTH",
"383 352 OFFCURVE",
"345 411 OFFCURVE",
"271 411 CURVE SMOOTH",
"239 411 OFFCURVE",
"209 390 OFFCURVE",
"182 355 CURVE",
"174 379 OFFCURVE",
"151 396 OFFCURVE",
"125 396 CURVE SMOOTH",
"92 396 OFFCURVE",
"65 369 OFFCURVE",
"65 336 CURVE SMOOTH",
"65 333 OFFCURVE",
"65 329 OFFCURVE",
"66 326 CURVE SMOOTH",
"68 313 OFFCURVE",
"69 298 OFFCURVE",
"69 279 CURVE SMOOTH",
"69 257 OFFCURVE",
"67 233 OFFCURVE",
"66 207 CURVE SMOOTH",
"65 182 OFFCURVE",
"63 155 OFFCURVE",
"63 129 CURVE SMOOTH",
"63 108 OFFCURVE",
"64 89 OFFCURVE",
"66 72 CURVE SMOOTH",
"71 35 OFFCURVE",
"98 20 OFFCURVE",
"135 24 CURVE SMOOTH",
"143 25 LINE SMOOTH",
"178 30 OFFCURVE",
"196 49 OFFCURVE",
"204 84 CURVE SMOOTH",
"223 168 OFFCURVE",
"267 291 OFFCURVE",
"271 291 CURVE SMOOTH",
"273 291 OFFCURVE",
"293 262 OFFCURVE",
"322 199 CURVE SMOOTH",
"337 166 OFFCURVE",
"355 127 OFFCURVE",
"378 92 CURVE SMOOTH",
"397 64 OFFCURVE",
"423 57 OFFCURVE",
"456 65 CURVE SMOOTH",
"465 67 LINE SMOOTH",
"496 74 OFFCURVE",
"513 91 OFFCURVE",
"527 120 CURVE SMOOTH",
"560 183 OFFCURVE",
"619 267 OFFCURVE",
"645 289 CURVE",
"649 280 OFFCURVE",
"658 262 OFFCURVE",
"669 224 CURVE SMOOTH",
"686 167 OFFCURVE",
"710 87 OFFCURVE",
"764 29 CURVE SMOOTH",
"775 17 OFFCURVE",
"790 9 OFFCURVE",
"808 9 CURVE SMOOTH"
);
}
);
width = 910;
}
);
unicode = 006D;
},
{
glyphname = n;
lastChange = "2020-07-01 14:32:29 +0000";
layers = (
{
background = {
paths = (
{
closed = 0;
nodes = (
"113 440 LINE",
"124 365 OFFCURVE",
"82 202 OFFCURVE",
"124 49 CURVE",
"200 294 OFFCURVE",
"320 458 OFFCURVE",
"394 458 CURVE SMOOTH",
"440 458 OFFCURVE",
"463 438 OFFCURVE",
"463 366 CURVE SMOOTH",
"463 208 OFFCURVE",
"489 119 OFFCURVE",
"564 55 CURVE SMOOTH"
);
}
);
};
backgroundImage = {
crop = "{{0, 0}, {498, 454}}";
imagePath = "Images/n.glif-Regular.tif";
locked = "1";
transform = "{1.49043, 0, 0, 1.49043, -39, -91}";
};
layerId = "DC44E50C-9AA1-421C-802C-D4D023281425";
paths = (
{
closed = 1;
nodes = (
"602 -5 OFFCURVE",
"624 27 OFFCURVE",
"624 59 CURVE SMOOTH",
"624 78 OFFCURVE",
"615 91 OFFCURVE",
"603 101 CURVE SMOOTH",
"545 150 OFFCURVE",
"528 226 OFFCURVE",
"528 380 CURVE SMOOTH",
"528 464 OFFCURVE",
"465 524 OFFCURVE",
"399 524 CURVE SMOOTH",
"309 524 OFFCURVE",
"198 436 OFFCURVE",
"128 274 CURVE",
"169 252 LINE",
"175 330 OFFCURVE",
"187 378 OFFCURVE",
"184 414 CURVE SMOOTH",
"180 464 OFFCURVE",
"137 483 OFFCURVE",
"101 483 CURVE SMOOTH",
"74 483 OFFCURVE",
"61 466 OFFCURVE",
"59 443 CURVE SMOOTH",
"51 355 OFFCURVE",
"45 278 OFFCURVE",
"45 151 CURVE SMOOTH",
"45 58 OFFCURVE",
"73 -7 OFFCURVE",
"123 -9 CURVE SMOOTH",
"158 -9 OFFCURVE",
"184 14 OFFCURVE",
"200 74 CURVE SMOOTH",
"245 237 OFFCURVE",
"354 376 OFFCURVE",
"391 376 CURVE SMOOTH",
"405 376 OFFCURVE",
"417 372 OFFCURVE",
"434 366 CURVE",
"383 416 LINE",
"401 391 OFFCURVE",
"403 381 OFFCURVE",
"403 338 CURVE SMOOTH",
"403 187 OFFCURVE",
"437 84 OFFCURVE",
"507 25 CURVE SMOOTH",
"535 1 OFFCURVE",
"549 -5 OFFCURVE",
"575 -5 CURVE SMOOTH"
);
}
);
width = 634;
}
);
unicode = 006E;
},
{
glyphname = o;
lastChange = "2020-07-01 14:38:12 +0000";
layers = (
{
background = {
paths = (
{
closed = 0;
nodes = (
"261 461 LINE",
"152 444 OFFCURVE",
"95 367 OFFCURVE",
"95 266 CURVE SMOOTH",
"95 161 OFFCURVE",
"172 68 OFFCURVE",
"315 68 CURVE SMOOTH",
"419 68 OFFCURVE",
"505 147 OFFCURVE",
"505 266 CURVE SMOOTH",
"505 380 OFFCURVE",
"423 444 OFFCURVE",
"326 444 CURVE SMOOTH",
"242 444 OFFCURVE",
"200 398 OFFCURVE",
"182 341 CURVE SMOOTH"
);
}
);
};
backgroundImage = {
crop = "{{0, 0}, {930, 210}}";
imagePath = "Images/h.001.glif-Regular.tif";
locked = "1";
transform = "{8.582, 0, 0, 8.582, -6224, -607}";
};
layerId = "DC44E50C-9AA1-421C-802C-D4D023281425";
paths = (
{
closed = 1;
nodes = (
"457 -12 OFFCURVE",
"565 108 OFFCURVE",
"565 266 CURVE SMOOTH",
"565 405 OFFCURVE",
"465 504 OFFCURVE",
"326 504 CURVE SMOOTH",
"212 504 OFFCURVE",
"134 409 OFFCURVE",
"134 352 CURVE SMOOTH",
"134 304 OFFCURVE",
"160 270 OFFCURVE",
"191 270 CURVE SMOOTH",
"225 270 OFFCURVE",
"225 322 OFFCURVE",
"256 350 CURVE SMOOTH",
"274 364 OFFCURVE",
"296 373 OFFCURVE",
"326 373 CURVE SMOOTH",
"402 373 OFFCURVE",
"451 332 OFFCURVE",
"451 266 CURVE SMOOTH",
"451 186 OFFCURVE",
"394 129 OFFCURVE",
"315 129 CURVE SMOOTH",
"214 129 OFFCURVE",
"150 183 OFFCURVE",
"150 266 CURVE SMOOTH",
"150 322 OFFCURVE",
"194 361 OFFCURVE",
"238 385 CURVE SMOOTH",
"281 408 OFFCURVE",
"296 430 OFFCURVE",
"296 467 CURVE SMOOTH",
"296 499 OFFCURVE",
"272 511 OFFCURVE",
"245 511 CURVE SMOOTH",
"142 509 OFFCURVE",
"35 386 OFFCURVE",
"35 266 CURVE SMOOTH",
"35 104 OFFCURVE",
"152 -12 OFFCURVE",
"315 -12 CURVE SMOOTH"
);
}
);
width = 600;
}
);
unicode = 006F;
},
{
color = 3;
glyphname = p;
lastChange = "2020-07-03 03:35:56 +0000";
layers = (
{
layerId = "DC44E50C-9AA1-421C-802C-D4D023281425";
paths = (
{
closed = 1;
nodes = (
"213 -269 OFFCURVE",
"239 -244 OFFCURVE",
"241 -212 CURVE SMOOTH",
"242 -193 OFFCURVE",
"242 -175 OFFCURVE",
"242 -156 CURVE SMOOTH",
"242 -20 OFFCURVE",
"215 94 OFFCURVE",
"191 194 CURVE SMOOTH",
"176 257 OFFCURVE",
"163 313 OFFCURVE",
"157 369 CURVE SMOOTH",
"154 399 OFFCURVE",
"128 423 OFFCURVE",
"97 423 CURVE SMOOTH",
"64 423 OFFCURVE",
"37 396 OFFCURVE",
"37 363 CURVE SMOOTH",
"37 361 OFFCURVE",
"37 358 OFFCURVE",
"37 356 CURVE SMOOTH",
"44 292 OFFCURVE",
"59 229 OFFCURVE",
"75 166 CURVE SMOOTH",
"98 66 OFFCURVE",
"122 -35 OFFCURVE",
"122 -156 CURVE SMOOTH",
"122 -173 OFFCURVE",
"122 -189 OFFCURVE",
"121 -205 CURVE SMOOTH",
"121 -207 OFFCURVE",
"121 -208 OFFCURVE",
"121 -209 CURVE SMOOTH",
"121 -242 OFFCURVE",
"148 -269 OFFCURVE",
"181 -269 CURVE SMOOTH"
);
},
{
closed = 1;
nodes = (
"386 69 OFFCURVE",
"561 132 OFFCURVE",
"561 236 CURVE SMOOTH",
"561 368 OFFCURVE",
"385 479 OFFCURVE",
"191 479 CURVE SMOOTH",
"168 479 OFFCURVE",
"145 477 OFFCURVE",
"125 473 CURVE SMOOTH",
"96 469 OFFCURVE",
"74 444 OFFCURVE",
"74 414 CURVE SMOOTH",
"74 381 OFFCURVE",
"101 354 OFFCURVE",
"134 354 CURVE SMOOTH",
"138 354 OFFCURVE",
"142 354 OFFCURVE",
"145 355 CURVE SMOOTH",
"159 357 OFFCURVE",
"174 359 OFFCURVE",
"191 359 CURVE SMOOTH",
"313 359 OFFCURVE",
"441 291 OFFCURVE",
"441 236 CURVE SMOOTH",
"441 228 OFFCURVE",
"300 189 OFFCURVE",
"221 189 CURVE SMOOTH",
"210 189 OFFCURVE",
"200 189 OFFCURVE",
"190 190 CURVE SMOOTH",
"189 190 OFFCURVE",
"188 190 OFFCURVE",
"186 190 CURVE SMOOTH",
"153 190 OFFCURVE",
"126 163 OFFCURVE",
"126 130 CURVE SMOOTH",
"126 98 OFFCURVE",
"151 72 OFFCURVE",
"183 70 CURVE SMOOTH",
"195 69 OFFCURVE",
"208 69 OFFCURVE",
"221 69 CURVE SMOOTH"
);
}
);
width = 600;
}
);
unicode = 0070;
},
{
color = 3;
glyphname = q;
lastChange = "2020-07-03 03:35:56 +0000";
layers = (
{
layerId = "DC44E50C-9AA1-421C-802C-D4D023281425";
paths = (
{
closed = 1;
nodes = (
"505 319 OFFCURVE",
"532 346 OFFCURVE",
"532 379 CURVE SMOOTH",
"532 396 OFFCURVE",
"525 411 OFFCURVE",
"514 422 CURVE SMOOTH",
"467 468 OFFCURVE",
"418 500 OFFCURVE",
"369 500 CURVE SMOOTH",
"228 500 OFFCURVE",
"55 313 OFFCURVE",
"55 162 CURVE SMOOTH",
"55 44 OFFCURVE",
"129 -37 OFFCURVE",
"240 -37 CURVE SMOOTH",
"317 -37 OFFCURVE",
"393 -4 OFFCURVE",
"455 48 CURVE",
"455 26 OFFCURVE",
"456 4 OFFCURVE",
"457 -19 CURVE SMOOTH",
"458 -58 OFFCURVE",
"459 -98 OFFCURVE",
"459 -141 CURVE SMOOTH",
"459 -155 OFFCURVE",
"458 -169 OFFCURVE",
"458 -183 CURVE SMOOTH",
"457 -225 OFFCURVE",
"479 -252 OFFCURVE",
"518 -252 CURVE SMOOTH",
"551 -252 OFFCURVE",
"581 -234 OFFCURVE",
"596 -222 CURVE SMOOTH",
"608 -212 OFFCURVE",
"678 -160 OFFCURVE",
"703 -138 CURVE SMOOTH",
"715 -127 OFFCURVE",
"723 -111 OFFCURVE",
"723 -93 CURVE SMOOTH",
"723 -60 OFFCURVE",
"696 -33 OFFCURVE",
"663 -33 CURVE SMOOTH",
"647 -33 OFFCURVE",
"633 -39 OFFCURVE",
"622 -49 CURVE SMOOTH",
"610 -60 OFFCURVE",
"599 -69 OFFCURVE",
"584 -79 CURVE SMOOTH",
"578 -83 LINE",
"578 -55 OFFCURVE",
"577 -42 OFFCURVE",
"576 -16 CURVE SMOOTH",
"576 22 OFFCURVE",
"575 57 OFFCURVE",
"575 92 CURVE SMOOTH",
"575 147 OFFCURVE",
"577 194 OFFCURVE",
"582 238 CURVE",
"587 254 OFFCURVE",
"592 275 OFFCURVE",
"592 294 CURVE SMOOTH",
"592 334 OFFCURVE",
"570 358 OFFCURVE",
"537 358 CURVE SMOOTH",
"490 358 OFFCURVE",
"470 320 OFFCURVE",
"464 264 CURVE",
"431 166 OFFCURVE",
"334 83 OFFCURVE",
"240 83 CURVE SMOOTH",
"198 83 OFFCURVE",
"175 108 OFFCURVE",
"175 162 CURVE SMOOTH",
"175 247 OFFCURVE",
"296 380 OFFCURVE",
"369 380 CURVE SMOOTH",
"381 380 OFFCURVE",
"411 355 OFFCURVE",
"430 336 CURVE SMOOTH",
"441 325 OFFCURVE",
"456 319 OFFCURVE",
"472 319 CURVE SMOOTH"
);
}
);
width = 620;
}
);
unicode = 0071;
},
{
glyphname = r;
lastChange = "2020-07-01 15:38:24 +0000";
layers = (
{
background = {
paths = (
{
closed = 0;
nodes = (
"90 468 LINE",
"147 386 OFFCURVE",
"155 94 OFFCURVE",
"152 8 CURVE",
"177 269 OFFCURVE",
"201 295 OFFCURVE",
"425 465 CURVE SMOOTH"
);
}
);
};
backgroundImage = {
crop = "{{0, 0}, {930, 210}}";
imagePath = "Images/h.001.glif-Regular.tif";
locked = "1";
transform = "{8.582, 0, 0, 8.582, -1431, -603}";
};
layerId = "DC44E50C-9AA1-421C-802C-D4D023281425";
paths = (
{
closed = 1;
nodes = (
"219 -6 OFFCURVE",
"228 5 OFFCURVE",
"233 44 CURVE SMOOTH",
"253 223 OFFCURVE",
"257 267 OFFCURVE",
"455 417 CURVE SMOOTH",
"469 428 OFFCURVE",
"479 445 OFFCURVE",
"479 465 CURVE SMOOTH",
"479 498 OFFCURVE",
"458 535 OFFCURVE",
"425 535 CURVE SMOOTH",
"384 535 OFFCURVE",
"275 446 OFFCURVE",
"178 306 CURVE",
"197 301 LINE",
"185 377 OFFCURVE",
"148 428 OFFCURVE",
"110 428 CURVE SMOOTH",
"82 428 OFFCURVE",
"50 397 OFFCURVE",
"50 368 CURVE SMOOTH",
"50 355 OFFCURVE",
"54 343 OFFCURVE",
"61 333 CURVE SMOOTH",
"100 276 OFFCURVE",
"109 134 OFFCURVE",
"108 81 CURVE SMOOTH",
"107 33 OFFCURVE",
"148 -6 OFFCURVE",
"189 -6 CURVE SMOOTH"
);
}
);
width = 500;
}
);
unicode = 0072;
},
{
glyphname = s;
lastChange = "2020-07-01 17:24:39 +0000";
layers = (
{
background = {
paths = (
{
closed = 0;
nodes = (
"324 478 LINE",
"232 480 OFFCURVE",
"121 445 OFFCURVE",
"121 371 CURVE SMOOTH",
"121 259 OFFCURVE",
"429 294 OFFCURVE",
"429 162 CURVE SMOOTH",
"429 81 OFFCURVE",
"213 17 OFFCURVE",
"80 37 CURVE SMOOTH"
);
}
);
};
backgroundImage = {
crop = "{{0, 0}, {930, 210}}";
imagePath = "Images/h.001.glif-Regular.tif";
locked = "1";
transform = "{8.582, 0, 0, 8.582, -3139, -603}";
};
layerId = "DC44E50C-9AA1-421C-802C-D4D023281425";
paths = (
{
closed = 1;
nodes = (
"291 -22 OFFCURVE",
"494 20 OFFCURVE",
"494 156 CURVE SMOOTH",
"494 306 OFFCURVE",
"181 305 OFFCURVE",
"181 365 CURVE",
"210 392 OFFCURVE",
"269 411 OFFCURVE",
"341 411 CURVE SMOOTH",
"365 411 OFFCURVE",
"384 425 OFFCURVE",
"384 450 CURVE SMOOTH",
"384 492 OFFCURVE",
"350 537 OFFCURVE",
"295 538 CURVE SMOOTH",
"184 541 OFFCURVE",
"54 478 OFFCURVE",
"54 371 CURVE SMOOTH",
"54 225 OFFCURVE",
"364 224 OFFCURVE",
"364 164 CURVE",
"338 134 OFFCURVE",
"223 108 OFFCURVE",
"142 108 CURVE SMOOTH",
"113 108 OFFCURVE",
"92 112 OFFCURVE",
"72 112 CURVE SMOOTH",
"47 112 OFFCURVE",
"34 94 OFFCURVE",
"34 73 CURVE SMOOTH",
"34 28 OFFCURVE",
"80 -22 OFFCURVE",
"163 -22 CURVE SMOOTH"
);
}
);
width = 519;
}
);
unicode = 0073;
},
{
glyphname = u;
lastChange = "2020-07-01 14:35:41 +0000";
layers = (
{
background = {
paths = (
{
closed = 0;
nodes = (
"126 477 LINE",
"109 433 OFFCURVE",
"98 390 OFFCURVE",
"98 327 CURVE SMOOTH",
"98 205 OFFCURVE",
"205 66 OFFCURVE",
"293 66 CURVE SMOOTH",
"429 66 OFFCURVE",
"482 256 OFFCURVE",
"464 479 CURVE SMOOTH"
);
}
);
};
backgroundImage = {
crop = "{{0, 0}, {930, 210}}";
imagePath = "Images/h.001.glif-Regular.tif";
locked = "1";
transform = "{8.582, 0, 0, 8.582, -4975, -603}";
};
layerId = "DC44E50C-9AA1-421C-802C-D4D023281425";
paths = (
{
closed = 1;
nodes = (
"458 -5 OFFCURVE",
"540 114 OFFCURVE",
"540 384 CURVE SMOOTH",
"540 488 OFFCURVE",
"502 518 OFFCURVE",
"441 518 CURVE SMOOTH",
"405 518 OFFCURVE",
"395 498 OFFCURVE",
"395 465 CURVE SMOOTH",
"395 438 OFFCURVE",
"398 411 OFFCURVE",
"398 383 CURVE SMOOTH",
"398 228 OFFCURVE",
"357 126 OFFCURVE",
"284 126 CURVE SMOOTH",
"239 126 OFFCURVE",
"172 233 OFFCURVE",
"172 313 CURVE SMOOTH",
"172 383 OFFCURVE",
"195 406 OFFCURVE",
"195 440 CURVE SMOOTH",
"195 480 OFFCURVE",
"157 513 OFFCURVE",
"112 513 CURVE SMOOTH",
"92 513 OFFCURVE",
"76 500 OFFCURVE",
"70 483 CURVE SMOOTH",
"48 427 OFFCURVE",
"38 374 OFFCURVE",
"38 313 CURVE SMOOTH",
"38 161 OFFCURVE",
"180 -5 OFFCURVE",
"314 -5 CURVE SMOOTH"
);
}
);
width = 572;
}
);
unicode = 0075;
},
{
glyphname = v;
lastChange = "2020-07-01 15:11:28 +0000";
layers = (
{
background = {
paths = (
{
closed = 0;
nodes = (
"51 492 LINE",
"119 420 OFFCURVE",
"160 199 OFFCURVE",
"254 39 CURVE",
"320 218 OFFCURVE",
"399 364 OFFCURVE",
"510 508 CURVE SMOOTH"
);
}
);
};
backgroundImage = {
crop = "{{0, 0}, {930, 210}}";
imagePath = "Images/h.001.glif-Regular.tif";
locked = "1";
transform = "{8.582, 0, 0, 8.582, -1959, -603}";
};
layerId = "DC44E50C-9AA1-421C-802C-D4D023281425";
paths = (
{
closed = 1;
nodes = (
"219 10 OFFCURVE",
"246 -7 OFFCURVE",
"276 -7 CURVE SMOOTH",
"296 -7 OFFCURVE",
"306 2 OFFCURVE",
"318 28 CURVE SMOOTH",
"400 212 OFFCURVE",
"455 307 OFFCURVE",
"555 458 CURVE SMOOTH",
"562 468 OFFCURVE",
"567 481 OFFCURVE",
"567 495 CURVE SMOOTH",
"567 530 OFFCURVE",
"534 568 OFFCURVE",
"505 568 CURVE SMOOTH",
"485 568 OFFCURVE",
"475 561 OFFCURVE",
"461 544 CURVE SMOOTH",
"366 424 OFFCURVE",
"297 301 OFFCURVE",
"237 158 CURVE",
"261 160 LINE",
"239 208 OFFCURVE",
"214 306 OFFCURVE",
"186 384 CURVE SMOOTH",
"161 451 OFFCURVE",
"126 513 OFFCURVE",
"56 513 CURVE SMOOTH",
"29 513 OFFCURVE",
"15 497 OFFCURVE",
"15 478 CURVE SMOOTH",
"15 428 OFFCURVE",
"47 411 OFFCURVE",
"100 269 CURVE SMOOTH",
"128 195 OFFCURVE",
"164 95 OFFCURVE",
"193 50 CURVE SMOOTH"
);
}
);
width = 576;
}
);
unicode = 0076;
},
{
color = 3;
glyphname = w;
lastChange = "2020-07-03 03:35:27 +0000";
layers = (
{
layerId = "DC44E50C-9AA1-421C-802C-D4D023281425";
paths = (
{
closed = 1;
nodes = (
"338 9 OFFCURVE",
"377 75 OFFCURVE",
"429 178 CURVE SMOOTH",
"436 191 OFFCURVE",
"481 277 OFFCURVE",
"480 277 CURVE SMOOTH",
"486 277 OFFCURVE",
"510 257 OFFCURVE",
"564 188 CURVE SMOOTH",
"621 118 OFFCURVE",
"700 18 OFFCURVE",
"803 18 CURVE SMOOTH",
"884 18 OFFCURVE",
"901 103 OFFCURVE",
"918 215 CURVE SMOOTH",
"930 298 OFFCURVE",
"945 348 OFFCURVE",
"947 350 CURVE",
"968 359 OFFCURVE",
"983 380 OFFCURVE",
"983 405 CURVE SMOOTH",
"983 438 OFFCURVE",
"956 465 OFFCURVE",
"923 465 CURVE SMOOTH",
"914 465 OFFCURVE",
"905 463 OFFCURVE",
"897 459 CURVE SMOOTH",
"834 430 OFFCURVE",
"817 353 OFFCURVE",
"799 232 CURVE SMOOTH",
"791 178 OFFCURVE",
"779 155 OFFCURVE",
"776 145 CURVE",
"749 158 OFFCURVE",
"714 193 OFFCURVE",
"658 263 CURVE SMOOTH",
"589 349 OFFCURVE",
"544 397 OFFCURVE",
"480 397 CURVE SMOOTH",
"411 397 OFFCURVE",
"372 331 OFFCURVE",
"322 232 CURVE SMOOTH",
"314 217 OFFCURVE",
"268 132 OFFCURVE",
"267 129 CURVE",
"267 132 OFFCURVE",
"233 221 OFFCURVE",
"226 240 CURVE SMOOTH",
"201 313 OFFCURVE",
"168 410 OFFCURVE",
"108 478 CURVE SMOOTH",
"97 491 OFFCURVE",
"81 499 OFFCURVE",
"63 499 CURVE SMOOTH",
"30 499 OFFCURVE",
"3 472 OFFCURVE",
"3 439 CURVE SMOOTH",
"3 424 OFFCURVE",
"9 410 OFFCURVE",
"18 399 CURVE SMOOTH",
"62 349 OFFCURVE",
"88 275 OFFCURVE",
"113 201 CURVE SMOOTH",
"154 81 OFFCURVE",
"187 9 OFFCURVE",
"267 9 CURVE SMOOTH"
);
}
);
width = 990;
}
);
unicode = 0077;
},
{
color = 3;
glyphname = x;
lastChange = "2020-07-03 03:35:27 +0000";
layers = (
{
layerId = "DC44E50C-9AA1-421C-802C-D4D023281425";
paths = (
{
closed = 1;
nodes = (
"467 -23 OFFCURVE",
"494 4 OFFCURVE",
"494 37 CURVE SMOOTH",
"494 51 OFFCURVE",
"489 63 OFFCURVE",
"482 73 CURVE SMOOTH",
"391 194 OFFCURVE",
"241 355 OFFCURVE",
"138 442 CURVE SMOOTH",
"127 451 OFFCURVE",
"114 456 OFFCURVE",
"99 456 CURVE SMOOTH",
"66 456 OFFCURVE",
"39 429 OFFCURVE",
"39 396 CURVE SMOOTH",
"39 377 OFFCURVE",
"47 361 OFFCURVE",
"61 350 CURVE SMOOTH",
"157 269 OFFCURVE",
"300 116 OFFCURVE",
"386 2 CURVE SMOOTH",
"396 -13 OFFCURVE",
"414 -23 OFFCURVE",
"434 -23 CURVE SMOOTH"
);
},
{
closed = 1;
nodes = (
"177 -161 OFFCURVE",
"202 -138 OFFCURVE",
"206 -108 CURVE SMOOTH",
"230 70 OFFCURVE",
"350 251 OFFCURVE",
"511 352 CURVE SMOOTH",
"528 362 OFFCURVE",
"540 381 OFFCURVE",
"540 403 CURVE SMOOTH",
"540 436 OFFCURVE",
"513 463 OFFCURVE",
"480 463 CURVE SMOOTH",
"468 463 OFFCURVE",
"457 459 OFFCURVE",
"447 453 CURVE SMOOTH",
"257 334 OFFCURVE",
"116 121 OFFCURVE",
"87 -92 CURVE SMOOTH",
"86 -95 OFFCURVE",
"86 -98 OFFCURVE",
"86 -101 CURVE SMOOTH",
"86 -134 OFFCURVE",
"113 -161 OFFCURVE",
"146 -161 CURVE SMOOTH"
);
}
);
width = 600;
}
);
unicode = 0078;
},
{
color = 3;
glyphname = y;
lastChange = "2020-07-03 03:35:27 +0000";
layers = (
{
layerId = "DC44E50C-9AA1-421C-802C-D4D023281425";
paths = (
{
closed = 1;
nodes = (
"448 -234 OFFCURVE",
"532 -121 OFFCURVE",
"532 45 CURVE SMOOTH",
"532 124 OFFCURVE",
"526 184 OFFCURVE",
"520 238 CURVE SMOOTH",
"515 287 OFFCURVE",
"510 330 OFFCURVE",
"510 381 CURVE SMOOTH",
"510 436 OFFCURVE",
"494 462 OFFCURVE",
"448 462 CURVE SMOOTH",
"413 462 OFFCURVE",
"396 442 OFFCURVE",
"381 393 CURVE SMOOTH",
"356 314 OFFCURVE",
"299 263 OFFCURVE",
"233 263 CURVE SMOOTH",
"214 263 OFFCURVE",
"195 305 OFFCURVE",
"195 381 CURVE SMOOTH",
"195 402 OFFCURVE",
"196 425 OFFCURVE",
"199 449 CURVE SMOOTH",
"200 451 OFFCURVE",
"200 454 OFFCURVE",
"200 457 CURVE SMOOTH",
"200 490 OFFCURVE",
"173 517 OFFCURVE",
"140 517 CURVE SMOOTH",
"109 517 OFFCURVE",
"84 494 OFFCURVE",
"80 464 CURVE SMOOTH",
"77 435 OFFCURVE",
"75 407 OFFCURVE",
"75 381 CURVE SMOOTH",
"75 242 OFFCURVE",
"129 143 OFFCURVE",
"233 143 CURVE SMOOTH",
"297 143 OFFCURVE",
"355 167 OFFCURVE",
"402 209 CURVE",
"407 160 OFFCURVE",
"412 110 OFFCURVE",
"412 45 CURVE SMOOTH",
"412 -56 OFFCURVE",
"375 -114 OFFCURVE",
"321 -114 CURVE SMOOTH",
"309 -114 OFFCURVE",
"301 -112 OFFCURVE",
"289 -108 CURVE SMOOTH",
"282 -105 OFFCURVE",
"275 -104 OFFCURVE",
"267 -104 CURVE SMOOTH",
"234 -104 OFFCURVE",
"207 -131 OFFCURVE",
"207 -164 CURVE SMOOTH",
"207 -190 OFFCURVE",
"224 -213 OFFCURVE",
"248 -221 CURVE SMOOTH",
"271 -229 OFFCURVE",
"297 -234 OFFCURVE",
"321 -234 CURVE SMOOTH"
);
}
);
width = 600;
}
);
unicode = 0079;
},
{
color = 3;
glyphname = z;
lastChange = "2020-07-03 03:35:27 +0000";
layers = (
{
layerId = "DC44E50C-9AA1-421C-802C-D4D023281425";
paths = (
{
closed = 1;
nodes = (
"294 -55 OFFCURVE",
"360 -43 OFFCURVE",
"417 -32 CURVE SMOOTH",
"466 -23 OFFCURVE",
"508 -15 OFFCURVE",
"541 -14 CURVE SMOOTH",
"574 -13 OFFCURVE",
"600 13 OFFCURVE",
"600 46 CURVE SMOOTH",
"600 79 OFFCURVE",
"573 106 OFFCURVE",
"540 106 CURVE SMOOTH",
"540 106 OFFCURVE",
"539 106 OFFCURVE",
"539 106 CURVE SMOOTH",
"495 105 OFFCURVE",
"444 95 OFFCURVE",
"395 86 CURVE SMOOTH",
"338 75 OFFCURVE",
"283 65 OFFCURVE",
"236 65 CURVE SMOOTH",
"219 65 OFFCURVE",
"208 68 OFFCURVE",
"201 73 CURVE",
"375 152 OFFCURVE",
"528 282 OFFCURVE",
"528 380 CURVE SMOOTH",
"528 481 OFFCURVE",
"448 521 OFFCURVE",
"311 521 CURVE SMOOTH",
"231 521 OFFCURVE",
"124 490 OFFCURVE",
"40 443 CURVE SMOOTH",
"21 433 OFFCURVE",
"8 413 OFFCURVE",
"8 390 CURVE SMOOTH",
"8 357 OFFCURVE",
"35 330 OFFCURVE",
"68 330 CURVE SMOOTH",
"79 330 OFFCURVE",
"89 333 OFFCURVE",
"98 338 CURVE SMOOTH",
"168 377 OFFCURVE",
"249 401 OFFCURVE",
"311 401 CURVE SMOOTH",
"396 401 OFFCURVE",
"408 391 OFFCURVE",
"408 380 CURVE SMOOTH",
"408 345 OFFCURVE",
"277 241 OFFCURVE",
"148 181 CURVE SMOOTH",
"84 150 OFFCURVE",
"71 120 OFFCURVE",
"71 91 CURVE SMOOTH",
"71 4 OFFCURVE",
"141 -55 OFFCURVE",
"236 -55 CURVE SMOOTH"
);
}
);
width = 600;
}
);
unicode = 007A;
},
{
glyphname = period;
lastChange = "2020-07-01 02:53:46 +0000";
layers = (
{
layerId = "DC44E50C-9AA1-421C-802C-D4D023281425";
paths = (
{
closed = 1;
nodes = (
"214 -13 OFFCURVE",
"232 7 OFFCURVE",
"232 25 CURVE SMOOTH",
"232 85 OFFCURVE",
"190 158 OFFCURVE",
"121 158 CURVE SMOOTH",
"82 158 OFFCURVE",
"50 131 OFFCURVE",
"50 95 CURVE SMOOTH",
"50 40 OFFCURVE",
"103 -13 OFFCURVE",
"166 -13 CURVE SMOOTH"
);
}
);
width = 287;
}
);
unicode = 002E;
},
{
glyphname = comma;
lastChange = "2020-07-01 02:54:47 +0000";
layers = (
{
background = {
paths = (
{
closed = 0;
nodes = (
"149 115 LINE",
"145 47 OFFCURVE",
"120 -25 OFFCURVE",
"95 -67 CURVE SMOOTH"
);
}
);
};
backgroundImage = {
crop = "{{0, 0}, {153, 185}}";
imagePath = "Images/comma.glif-Regular.tif";
transform = "{2.42517, 0, 0, 2.42517, -24, -213}";
};
layerId = "DC44E50C-9AA1-421C-802C-D4D023281425";
paths = (
{
closed = 1;
nodes = (
"117 -127 OFFCURVE",
"137 -115 OFFCURVE",
"147 -97 CURVE SMOOTH",
"180 -42 OFFCURVE",
"205 43 OFFCURVE",
"209 111 CURVE SMOOTH",
"209 112 OFFCURVE",
"209 114 OFFCURVE",
"209 115 CURVE SMOOTH",
"209 148 OFFCURVE",
"182 175 OFFCURVE",
"149 175 CURVE SMOOTH",
"117 175 OFFCURVE",
"91 150 OFFCURVE",
"89 118 CURVE SMOOTH",
"86 66 OFFCURVE",
"68 6 OFFCURVE",
"44 -36 CURVE SMOOTH",
"38 -45 OFFCURVE",
"35 -55 OFFCURVE",
"35 -67 CURVE SMOOTH",
"35 -100 OFFCURVE",
"62 -127 OFFCURVE",
"95 -127 CURVE SMOOTH"
);
}
);
width = 259;
}
);
unicode = 002C;
},
{
glyphname = hyphen;
lastChange = "2020-07-01 02:55:28 +0000";
layers = (
{
layerId = "DC44E50C-9AA1-421C-802C-D4D023281425";
paths = (
{
closed = 1;
nodes = (
"197 215 OFFCURVE",
"272 239 OFFCURVE",
"365 245 CURVE SMOOTH",
"396 247 OFFCURVE",
"421 273 OFFCURVE",
"421 305 CURVE SMOOTH",
"421 338 OFFCURVE",
"394 365 OFFCURVE",
"361 365 CURVE SMOOTH",
"296 365 OFFCURVE",
"186 335 OFFCURVE",
"115 311 CURVE SMOOTH",
"58 287 OFFCURVE",
"50 263 OFFCURVE",
"50 230 CURVE SMOOTH",
"50 194 OFFCURVE",
"87 173 OFFCURVE",
"128 189 CURVE SMOOTH"
);
}
);
width = 471;
}
);
unicode = 002D;
},
